<?xml version="1.0" encoding="utf-8"?>
<!-- Generator: Adobe Illustrator 16.0.0, SVG Export Plug-In . SVG Version: 6.00 Build 0)  -->
<svg version="1.2" baseProfile="tiny" id="Layer_1" xmlns="http://www.w3.org/2000/svg" xmlns:xlink="http://www.w3.org/1999/xlink"
	 x="0px" y="0px" width="351.754px" height="168.421px" viewBox="0 0 351.754 168.421" overflow="hidden" xml:space="preserve">
<path fill="#A32B0B" d="M98.294,124.531c-0.02,13.559-0.04,27.121-0.06,40.68c-13.539-13.559-27.081-27.121-40.62-40.68
	c-6.899,0-13.801,0-20.7,0c-4.64-0.021-9.281-0.041-13.92-0.061c-5.847-0.967-10.9-2.604-13.92-6.359
	c-1.962-2.44-3.376-4.992-4.26-8.58c-0.533-2.164-0.42-4.848-0.42-7.5c0-19.977,0-102.071,0-74.4c0-2.688-0.12-5.425,0.42-7.62
	c0.883-3.588,2.298-6.14,4.26-8.58c3.021-3.758,8.013-5.87,14.82-6.42c117.272-0.029,259.662,0.02,289.561,0
	c3.639,0,7.279,0,10.92,0c2.273,0,4.612-0.135,6.6,0.24c6.554,1.236,11.445,4.005,14.4,8.82c2.876,4.687,2.699,10.726,2.699,18.36
	c0,9.599,0,19.201,0,28.8c0,11.539,0,23.082,0,34.621c0,2.52,0,5.039,0,7.56c-0.039,1.42-0.08,2.84-0.119,4.26
	c-0.871,4.863-2.396,8.495-5.701,11.521c-2.798,2.561-6.123,4.006-10.56,4.979c-2.112,0.464-4.628,0.36-7.14,0.36"/>
<path fill-rule="evenodd" fill="#FFFFFF" d="M8.834,58.59c111.589,0,223.211,0,334.8,0c0-7.799,0-15.601,0-23.4
	c0-11.033,1.014-17.051-5.94-22.2c-5.057-3.744-8.485-3.6-21.84-3.66c-73.002,0-273.66-0.02-278.46,0
	c-13.918,0-17.811-0.871-22.86,3c-5.999,4.599-5.7,11.872-5.7,22.32C8.834,42.63,8.834,50.611,8.834,58.59z"/>
<path fill-rule="evenodd" fill="#FFFFFF" d="M157.995,64.021c1.5,3,3,6,4.5,9c0.6-1.21,1.32-2.64,4.5-9
	C163.995,64.021,160.994,64.021,157.995,64.021z"/>
<path fill-rule="evenodd" fill="#FFFFFF" d="M23.534,77.46c0,8.979,0,17.961,0,26.939c8.979,0,17.961,0,26.94,0c0-2.999,0-6,0-9
	c-5.979-0.02-11.96-0.039-17.94-0.06c0-5.96,0-11.92,0-17.88C29.535,77.46,26.534,77.46,23.534,77.46z"/>
<path fill-rule="evenodd" fill="#FFFFFF" d="M59.415,104.4c11.938,0,23.881,0,35.82,0c0-2.999,0-6,0-9c-2.96,0-5.92,0-8.88,0
	c0-5.979,0-11.96,0-17.939c-6.02,0-12.041,0-18.06,0c-2.96,3-5.92,6-8.88,9C59.415,92.44,59.415,98.421,59.415,104.4z"/>
<path fill-rule="evenodd" fill="#FFFFFF" d="M113.114,77.46c0,8.979,0,17.961,0,26.939c8.999,0,18.001,0,27,0c0-2.999,0-6,0-9
	c-5.979,0-11.96,0-17.94,0c0-2.979,0-5.96,0-8.939c5.979,0,11.961,0,17.94,0c0-3,0-6,0-9C131.115,77.46,122.113,77.46,113.114,77.46
	z"/>
<path fill-rule="evenodd" fill="#FFFFFF" d="M148.995,77.46c0,8.979,0,17.961,0,26.939c8.979,0,17.961,0,26.94,0
	c0-8.979,0-17.961,0-26.939c-3,0-6,0-9,0c0,5.979,0,11.961,0,17.939c-2.979-0.02-5.96-0.039-8.94-0.06c0-5.96,0-11.92,0-17.88
	C154.995,77.46,151.994,77.46,148.995,77.46z"/>
<path fill-rule="evenodd" fill="#FFFFFF" d="M184.875,77.46c0,11.979,0,23.961,0,35.939c2.979,0,5.96,0,8.94,0c0-2.999,0-6,0-9
	c5.979,0,11.961,0,17.939,0c0-6.02,0-12.04,0-18.06c-2.979-2.959-5.959-5.92-8.939-8.88C196.835,77.46,190.854,77.46,184.875,77.46z
	"/>
<path fill-rule="evenodd" fill="#FFFFFF" d="M220.635,77.46c0,8.979,0,17.961,0,26.939c8.999,0,18.001,0,27,0
	c0-8.979,0-17.961,0-26.939c-3.02,0-6.041,0-9.061,0c0,5.979,0,11.961,0,17.939c-2.959,0-5.92,0-8.879,0c0-5.979,0-11.96,0-17.939
	C226.675,77.46,223.654,77.46,220.635,77.46z"/>
<path fill-rule="evenodd" fill="#FFFFFF" d="M256.515,77.46c0,8.979,0,17.961,0,26.939c8.979,0,17.961,0,26.94,0c0-2.999,0-6,0-9
	c-5.96,0-11.921,0-17.881,0c0-5.979,0-11.96,0-17.939C262.555,77.46,259.534,77.46,256.515,77.46z"/>
<path fill-rule="evenodd" fill="#FFFFFF" d="M292.335,104.4c11.958,0,23.921,0,35.88,0c0-2.999,0-6,0-9c-2.98,0-5.961,0-8.939,0
	c0-5.979,0-11.96,0-17.939c-6,0-12.002,0-18,0c-2.98,3-5.961,6-8.94,9C292.335,92.44,292.335,98.421,292.335,104.4z"/>
<path fill-rule="evenodd" fill="#A32B0B" d="M193.754,86.4c3.02,0.021,6.041,0.041,9.06,0.061c-0.02,3-0.04,6-0.061,9
	c-2.999,0-6,0-9,0C193.754,92.441,193.754,89.419,193.754,86.4z"/>
<path fill-rule="evenodd" fill="#A32B0B" d="M301.275,86.4c3.02,0,6.039,0,9.06,0c0,3.02,0,6.041,0,9.061c-3.021,0-6.04,0-9.06,0
	C301.275,92.441,301.275,89.419,301.275,86.4z"/>
<path fill-rule="evenodd" fill="#A32B0B" d="M318.805,23.554c2.549-0.052,4.299,0.473,5.928,1.512
	c-0.402,1.048-0.807,2.217-1.209,3.266c-1.804-0.604-3.946-2.108-4.961-0.484c-0.143,0.667-0.334,1.111,0.061,1.754
	c4.209,1.68,9.121,2.938,6.533,9.01c-0.395,0.924-0.81,1.454-1.572,1.996c-2.113,1.5-5.017,1.966-7.562,0.907
	c-1.897-0.789-1.913-0.5-3.327-1.814c0.314-0.735,1.161-2.236,1.754-3.205c1.599,0.874,4.461,2.823,5.808,0.604
	c0.18-0.296,0.645-0.502,0.483-1.149c-0.417-1.679-4.566-2.048-5.928-3.084c-3.115-2.37-1.017-7.29,1.271-8.647
	C316.748,23.824,317.58,23.626,318.805,23.554z"/>
<path fill-rule="evenodd" fill="#A32B0B" d="M30.794,24.099c3.488,0.02,6.977,0.04,10.464,0.06c0,1.209,0,2.419,0,3.628
	c-1.895,0-3.791,0-5.686,0c0,1.108,0,2.217,0,3.326c1.532,0.02,3.065,0.04,4.597,0.06c0,1.048,0,2.097,0,3.145
	c-1.532,0-3.065,0-4.597,0c0.021,1.189,0.041,2.379,0.061,3.568c1.875,0,3.75,0,5.625,0c-0.02,1.29-0.041,2.581-0.061,3.87
	c-3.468-0.02-6.936-0.04-10.404-0.06C30.794,35.831,30.794,29.963,30.794,24.099z"/>
<path fill-rule="evenodd" fill="#A32B0B" d="M105.347,24.099c1.608,0.02,3.231,0.01,4.778,0c-0.02,5.865,0.021,11.792,0,17.657
	c-1.572-0.02-3.206,0.021-4.778,0C105.347,35.891,105.347,29.963,105.347,24.099z"/>
<path fill-rule="evenodd" fill="#A32B0B" d="M174.981,24.099c-0.02,5.885-0.04,11.772-0.061,17.657
	c-1.613-0.02-3.226-0.04-4.839-0.06c0-0.021,0-0.041,0-0.061c0-5.845,0-11.692,0-17.537
	C171.715,24.099,173.349,24.099,174.981,24.099z"/>
<path fill-rule="evenodd" fill="#A32B0B" d="M252.963,24.099c1.612,0,3.226,0,4.838,0c0,5.885,0,11.772,0,17.657
	c-1.592,0-3.186,0-4.777,0c-2.763-3.205-5.525-6.41-8.287-9.615c-0.021,0-0.041,0-0.061,0c0,4.01-0.022,8.031,0,9.615
	c-1.572-0.02-3.267-0.04-4.839-0.06c0.021-5.865,0.04-11.732,0.061-17.597c0.747-0.015,3.789,0.013,4.354,0
	c2.803,3.222,5.256,6.097,8.711,10.038C252.963,30.791,252.963,27.444,252.963,24.099z"/>
<path fill-rule="evenodd" fill="#A32B0B" d="M279.555,24.099c3.447,0,6.835,0,10.282,0c0,1.229,0,2.459,0,3.688
	c-1.854,0-3.649,0-5.505,0c0,1.108,0,2.217,0,3.326c1.492,0,2.984,0,4.477,0c0.021,1.068,0.041,2.137,0.061,3.205
	c-1.512,0-3.024,0-4.537,0c0,1.189,0,2.379,0,3.568c1.855,0,3.65,0,5.505,0c-0.021,1.29,0.021,2.581,0,3.87
	c-3.427,0-6.855,0-10.282,0C279.555,35.871,279.555,29.984,279.555,24.099z"/>
<path fill-rule="evenodd" fill="#A32B0B" d="M206.936,23.919c5.005-0.076,8.023,2.354,9.508,5.596
	c0.93,2.029,1.042,4.906,0.088,7.023c-1.184,2.627-3.354,4.503-6.406,5.377c-0.666,0.19-1.381,0.211-2.136,0.329
	c-1.532,0.239-3.366-0.35-4.329-0.741c-2.766-1.122-4.692-3.084-5.617-5.926c-0.208-0.638-0.193-1.248-0.322-2.002
	c-0.208-1.223,0.132-2.626,0.498-3.512c1.075-2.603,2.951-4.52,5.704-5.542C204.991,24.125,206.269,23.949,206.936,23.919z"/>
<path fill-rule="evenodd" fill="#FFFFFF" d="M207.172,28.33c2.602-0.04,4.172,1.224,4.943,2.91c0.483,1.055,0.541,2.551,0.046,3.652
	c-0.616,1.366-1.744,2.342-3.331,2.796c-0.346,0.099-0.719,0.11-1.111,0.171c-0.797,0.125-1.75-0.182-2.251-0.385
	c-1.438-0.583-2.44-1.604-2.921-3.082c-0.107-0.332-0.101-0.648-0.168-1.041c-0.107-0.636,0.069-1.366,0.26-1.826
	c0.559-1.354,1.534-2.35,2.966-2.882C206.16,28.437,206.824,28.346,207.172,28.33z"/>
<path fill-rule="evenodd" fill="#A32B0B" d="M141.235,23.917c2.615-0.044,4.192,0.496,5.988,1.028
	c-0.021,1.512-0.041,3.024-0.061,4.536c-3.839-2.337-8.79-1.223-9.799,3.023c-0.21,0.885,0.223,1.972,0.484,2.479
	c1.623,3.158,6.297,4.098,9.375,1.814c0,1.451,0,2.903,0,4.354c-1.543,0.516-3.477,1.549-5.867,1.149
	c-5.194-0.87-10.943-5.924-8.105-12.518c1.067-2.479,3.063-4.333,5.625-5.321C139.688,24.181,140.251,24.012,141.235,23.917z"/>
<path fill-rule="evenodd" fill="#A32B0B" d="M66.21,42.059c0-5.926,0-12.035,0-17.96c2.419-0.021,4.839-0.041,7.258-0.061
	c4.667,0.817,9.775,5.248,7.923,11.429c-1.046,3.495-4.203,5.894-8.044,6.591C70.92,42.034,68.601,42.046,66.21,42.059z"/>
<path fill-rule="evenodd" fill="#FFFFFF" d="M71.109,28.332c0,3.205,0,6.41,0,9.615c3.624,0.079,7.48-3.491,5.262-7.136
	C75.311,29.069,73.41,28.502,71.109,28.332z"/>
<path fill="#A32B0B" d="M68.354,86.4c3.02,0,6.04,0,9.06,0c0,3.02,0,6.041,0,9.061c-3.02,0-6.041,0-9.06,0
	C68.354,92.441,68.354,89.419,68.354,86.4z"/>
</svg>
