<svg id="Capa_1" data-name="Capa 1" xmlns="http://www.w3.org/2000/svg" viewBox="0 0 550.01 31.97"><defs><style>.cls-1{fill:#4a5f68;}</style></defs><title>asphalt</title><path class="cls-1" d="M627.27,305.21h-.74c-9.88,0-9.88-7.57-19.77-7.57s-9.89,7.57-19.77,7.57-9.89-7.57-19.77-7.57-9.88,7.57-19.77,7.57-9.89-7.57-19.77-7.57-9.88,7.57-19.77,7.57-9.88-7.57-19.77-7.57-9.87,7.59-19.77,7.59-9.88-7.57-19.77-7.57c-9.38,0-9.86,6.81-18.34,7.51-8.48-.69-9-7.51-18.34-7.51-9.89,0-9.89,7.57-19.78,7.57s-9.88-7.57-19.77-7.57-9.89,7.57-19.77,7.57-9.89-7.57-19.77-7.57-9.88,7.57-19.77,7.57-9.89-7.57-19.77-7.57-9.88,7.57-19.77,7.57-9.88-7.57-19.76-7.57-9.89,7.57-19.77,7.57-9.89-7.57-19.77-7.57-9.88,7.57-19.77,7.57-9.89-7.57-19.77-7.57-9.88,7.57-19.77,7.57-9.88-7.57-19.77-7.57-9.87,7.57-19.77,7.57-9.88-7.57-19.77-7.57c-9.38,0-9.86,6.81-18.34,7.51v24.44h550Z" transform="translate(-77.26 -297.64)"/></svg>