<svg id="Capa_1" data-name="Capa 1" xmlns="http://www.w3.org/2000/svg" viewBox="0 0 409.15 169.68"><defs><style>.cls-1{fill:#044262;}.cls-1,.cls-10,.cls-9{fill-rule:evenodd;}.cls-2{fill:#e52332;}.cls-3{fill:#f8b133;}.cls-3,.cls-6{stroke:#055a81;}.cls-4,.cls-6{fill:#fff;}.cls-5{fill:#1d1d1b;}.cls-6{stroke-width:0.97px;}.cls-7{fill:#0582bb;}.cls-8{fill:#1e1e1c;}.cls-9{fill:#cdcdb8;}.cls-10{fill:#be1823;}.cls-11{fill:#b2b390;}</style></defs><title>coche2</title><polyline class="cls-1" points="16.02 142.64 54.95 141.72 128.03 146.18 304.98 144.65 374.11 153.15 382.14 134.67 370.69 88.51 54.13 88.51"/><path class="cls-2" d="M335,302.23s-2.25-51.3-145.15-39.71l10.12,48s-12.37,16.55-3.37,23.17l43-1.22a38,38,0,1,1,73.07,4.46l177-1.53a38,38,0,1,1,69.13,8.5L569,345.26l-2.25-19.85-1.12-16.55,11.25-34.75s16.88-8.27,16.88-26.48C593.8,247.62,429.51,241,335,302.23Z" transform="translate(-184.65 -190.74)"/><ellipse class="cls-3" cx="6.9" cy="83.82" rx="6.4" ry="3.64"/><ellipse class="cls-3" cx="8.77" cy="90.02" rx="6.4" ry="3.64"/><ellipse class="cls-3" cx="10.64" cy="95.88" rx="6.4" ry="3.64"/><path class="cls-4" d="M316.36,333.38h164.1s-13.9-13.62.66-20.43c0,0-17.87-1.95-12.58,12.65Z" transform="translate(-184.65 -190.74)"/><path class="cls-2" d="M470,255.9l-12.37-44.67,16.23,1.42s-114.13-75.89-225.53,54.84l52.89,13.24s-14.63-72.81,146.28-69.5Z" transform="translate(-184.65 -190.74)"/><path class="cls-4" d="M578.81,253.51s-132-8.07-242.4,52.69c0,0,111.88-52.69,231.79-49.47Z" transform="translate(-184.65 -190.74)"/><path class="cls-4" d="M333.12,305.12s-1.83-35-83.36-40.32C249.76,264.8,315.57,271.79,333.12,305.12Z" transform="translate(-184.65 -190.74)"/><path class="cls-5" d="M458.13,323.95s-1.37-1.66.45-9.93L310.81,324.78Z" transform="translate(-184.65 -190.74)"/><path class="cls-6" d="M282.11,250.11c0,5.94,3.28,10.75,7.31,10.75s7.32-4.81,7.32-10.75-3.28-10.76-7.32-10.76S282.11,244.17,282.11,250.11Z" transform="translate(-184.65 -190.74)"/><polyline class="cls-5" points="271.25 67.88 258.18 56.9 261.54 45.37 246.98 70.08 256.31 61.29 268.64 68.97"/><path class="cls-5" d="M384,267.23l-3.2-25.09c2.24-3.85,9-1.1,9-1.1l6.63,24.9,28.1-2.93h.74c-46.3,8.23-89.62,36.25-89.62,36.25-4.1-20.32-21.66-24.71-21.66-24.71Z" transform="translate(-184.65 -190.74)"/><path class="cls-5" d="M243.8,263s-11.58-34.6-25.39-43.39c0,0,17.55,20.32,22.41,43.39Z" transform="translate(-184.65 -190.74)"/><ellipse class="cls-7" cx="34.5" cy="28.89" rx="2.24" ry="3.29"/><path class="cls-5" d="M573.2,273.86s-20-4.43-83.66,4.43c0,0,77.21-4.11,76.14.64s-30.3,4.27-30.3,4.27,29.65,1.1,27.28,6.17-12.4,3.88-12.4,3.88l13.91,7.18s7.08-16.52,9-25.94" transform="translate(-184.65 -190.74)"/><path class="cls-5" d="M197.57,268.79s47.35-10.29,95.78,17.4c0,0-59.73-3.56-90.4,13.85,0,0,15.87-17.4,58.11-19,0,0-29.06-7.52-59.46,2.37,0,0,3.5-8.31,46.28-9.1C247.89,274.32,218,266,197.57,268.79Z" transform="translate(-184.65 -190.74)"/><path class="cls-5" d="M461.42,208.44s-127.83-9.73-152.07,38.9C309.35,247.34,318.79,193.17,461.42,208.44Z" transform="translate(-184.65 -190.74)"/><path class="cls-3" d="M587.35,260.14c4.47-6.61,5.85-10.56,2.85-10.63-3.49-.07-10.55,5.37-15,12s-4.09,12.72-1.18,12S582.88,266.76,587.35,260.14Z" transform="translate(-184.65 -190.74)"/><ellipse class="cls-8" cx="345.36" cy="132.38" rx="35.41" ry="35.64"/><path class="cls-9" d="M505.53,323.11A24.47,24.47,0,1,1,530,347.75,24.55,24.55,0,0,1,505.53,323.11Z" transform="translate(-184.65 -190.74)"/><path class="cls-10" d="M531.36,302c-.74-5.45-2-5.45-2.7,0l-.84,6.18a9.51,9.51,0,0,1-11.19,8.13l-5.85-1.06c-5.41-1-5.8.2-.86,2.62l5.38,2.64a9.66,9.66,0,0,1,4.3,13.24l-2.89,5.46c-2.57,4.86-1.58,5.58,2.21,1.59l4.2-4.42a9.42,9.42,0,0,1,13.77,0l4.2,4.42c3.79,4,4.78,3.27,2.21-1.59l-2.89-5.46a9.66,9.66,0,0,1,4.3-13.24l5.39-2.64c4.94-2.42,4.55-3.6-.86-2.62l-5.85,1.06a9.51,9.51,0,0,1-11.19-8.13Z" transform="translate(-184.65 -190.74)"/><ellipse class="cls-11" cx="345.36" cy="132.37" rx="8.33" ry="8.38"/><ellipse class="cls-8" cx="97.46" cy="134.04" rx="35.41" ry="35.64"/><path class="cls-9" d="M257.63,324.77a24.47,24.47,0,1,1,24.47,24.64A24.56,24.56,0,0,1,257.63,324.77Z" transform="translate(-184.65 -190.74)"/><path class="cls-10" d="M283.46,303.67c-.74-5.45-2-5.45-2.7,0l-.84,6.18A9.51,9.51,0,0,1,268.72,318l-5.85-1.06c-5.41-1-5.8.2-.86,2.62l5.38,2.64a9.66,9.66,0,0,1,4.3,13.24l-2.89,5.46c-2.57,4.86-1.58,5.58,2.21,1.59l4.2-4.42A9.42,9.42,0,0,1,289,338l4.2,4.42c3.79,4,4.78,3.28,2.21-1.59l-2.89-5.46a9.66,9.66,0,0,1,4.3-13.24l5.39-2.64c4.94-2.42,4.55-3.6-.86-2.62L295.49,318a9.51,9.51,0,0,1-11.19-8.13Z" transform="translate(-184.65 -190.74)"/><ellipse class="cls-11" cx="97.46" cy="134.03" rx="8.33" ry="8.38"/></svg>