<svg xmlns="http://www.w3.org/2000/svg" viewBox="0 0 218.39 219.83"><defs><style>.cls-1{fill:#1e1e1c;}.cls-1,.cls-2,.cls-3,.cls-4{fill-rule:evenodd;}.cls-2{fill:#cdcdb8;}.cls-3{fill:#be1823;}.cls-4{fill:#b2b390;}</style></defs><title>Recurso 1</title><g id="Capa_2" data-name="Capa 2"><g id="Capa_1-2" data-name="Capa 1"><path class="cls-1" d="M0,109.91C0,49.21,48.89,0,109.19,0s109.2,49.21,109.2,109.91-48.9,109.93-109.2,109.93S0,170.62,0,109.91Z"/><path class="cls-2" d="M33.73,109.91c0-42,33.8-76,75.46-76s75.47,34,75.47,76-33.77,76-75.47,76S33.73,151.87,33.73,109.91Z"/><path class="cls-3" d="M110.55,24.18c-.74-5.45-2-5.45-2.7,0L99.62,84.53a9.51,9.51,0,0,1-11.19,8.13L29.37,82c-5.41-1-5.8.2-.86,2.62l54,26.47a9.66,9.66,0,0,1,4.31,13.24L58.46,178c-2.57,4.86-1.58,5.58,2.21,1.59l41.64-43.86a9.42,9.42,0,0,1,13.77,0l41.64,43.86c3.79,4,4.78,3.27,2.21-1.59l-28.4-53.68a9.66,9.66,0,0,1,4.3-13.24l54-26.47c4.94-2.42,4.55-3.6-.86-2.62L130,92.66a9.51,9.51,0,0,1-11.19-8.13Z"/><path class="cls-4" d="M83.51,109.91a25.68,25.68,0,1,1,25.67,25.85A25.77,25.77,0,0,1,83.51,109.91Z"/></g></g></svg>