<svg id="Capa_1" data-name="Capa 1" xmlns="http://www.w3.org/2000/svg" viewBox="0 0 588.5 244.15"><defs><style>.cls-1{fill:#044262;}.cls-2{fill:#0582bb;}.cls-3{fill:#f8b133;}.cls-3,.cls-6{stroke:#055a81;}.cls-4,.cls-6{fill:#fff;}.cls-5{fill:#055a81;}.cls-6{stroke-width:0.97px;}.cls-7{fill:#1e1e1c;}.cls-8{fill:#cdcdb8;}.cls-9{fill:#be1823;}.cls-10{fill:#b2b390;}</style></defs><title>Sin título-1</title><polyline class="cls-1" points="22.83 205.25 78.85 203.91 184 210.34 438.61 208.14 538.07 220.36 549.64 193.77 533.16 127.36 77.67 127.36"/><path class="cls-2" d="M215.61,358.49s-3.24-73.82-208.86-57.14l14.56,69s-17.81,23.81-4.85,33.34L78.35,402A54.62,54.62,0,1,1,183.5,408.4l254.61-2.19a54.62,54.62,0,1,1,99.46,12.22l14.8,2-3.24-28.56L547.52,368l16.19-50S588,306.11,588,279.91C588,279.91,351.61,270.4,215.61,358.49Z" transform="translate(0.5 -198.06)"/><ellipse class="cls-3" cx="9.71" cy="120.62" rx="9.21" ry="5.24"/><ellipse class="cls-3" cx="12.4" cy="129.53" rx="9.21" ry="5.24"/><ellipse class="cls-3" cx="15.09" cy="137.96" rx="9.21" ry="5.24"/><path class="cls-4" d="M188.79,403.31H424.91s-20-19.6,1-29.4c0,0-25.71-2.81-18.1,18.2Z" transform="translate(0.5 -198.06)"/><path class="cls-2" d="M409.9,291.82l-17.81-64.28,23.36,2S251.24,120.38,90.94,308.49l76.1,19s-21-104.77,210.48-100Z" transform="translate(0.5 -198.06)"/><path class="cls-4" d="M566.44,288.38S376.52,276.78,217.65,364.2c0,0,161-75.81,333.53-71.18Z" transform="translate(0.5 -198.06)"/><path class="cls-4" d="M212.92,362.65s-2.64-50.29-119.95-58C93,304.63,187.67,314.69,212.92,362.65Z" transform="translate(0.5 -198.06)"/><path class="cls-5" d="M392.79,389.74s-2-2.38.65-14.28L180.81,390.93Z" transform="translate(0.5 -198.06)"/><ellipse class="cls-6" cx="150.54" cy="85.43" rx="10.53" ry="15.48"/><polyline class="cls-2" points="390.08 97.68 371.27 81.87 376.11 65.27 355.15 100.83 368.58 88.19 386.32 99.25"/><path class="cls-5" d="M286.19,308.13,281.58,272c3.23-5.54,12.9-1.58,12.9-1.58L304,306.28l40.44-4.22h1.07c-66.62,11.85-129,52.15-129,52.15-5.9-29.24-31.16-35.56-31.16-35.56Z" transform="translate(0.5 -198.06)"/><path class="cls-2" d="M84.39,302.06s-16.66-49.79-36.54-62.43c0,0,25.26,29.23,32.24,62.43Z" transform="translate(0.5 -198.06)"/><ellipse class="cls-2" cx="49.42" cy="41.56" rx="3.22" ry="4.74"/><path class="cls-5" d="M558.37,317.66S529.59,311.29,438,324c0,0,111.1-5.91,109.55.92S504,331.1,504,331.1s42.66,1.59,39.25,8.87-17.84,5.59-17.84,5.59l20,10.34s10.18-23.77,13-37.32" transform="translate(0.5 -198.06)"/><path class="cls-5" d="M17.88,310.37s68.14-14.8,137.82,25c0,0-85.94-5.12-130.08,19.93,0,0,22.84-25,83.62-27.32,0,0-41.81-10.82-85.55,3.42,0,0,5-12,66.58-13.09C90.27,318.33,47.3,306.38,17.88,310.37Z" transform="translate(0.5 -198.06)"/><path class="cls-5" d="M397.53,223.54s-183.94-14-218.81,56C178.71,279.51,192.3,201.56,397.53,223.54Z" transform="translate(0.5 -198.06)"/><path class="cls-3" d="M578.72,297.92c6.44-9.51,8.42-15.2,4.11-15.3-5-.11-15.17,7.73-21.61,17.24s-5.88,18.3-1.69,17.23S572.3,307.44,578.72,297.92Z" transform="translate(0.5 -198.06)"/><ellipse class="cls-7" cx="496.71" cy="190.48" rx="50.95" ry="51.29"/><ellipse class="cls-8" cx="496.71" cy="190.47" rx="35.21" ry="35.45"/><path class="cls-9" d="M498.76,362.62c-1.4-10.29-3.69-10.29-5.1,0A17.86,17.86,0,0,1,472.74,378c-10.1-1.83-10.81.38-1.57,4.9a18.13,18.13,0,0,1,8,24.88c-4.84,9.16-3,10.52,4.12,3a17.69,17.69,0,0,1,25.86,0c7.11,7.49,9,6.12,4.12-3a18.13,18.13,0,0,1,8-24.88c9.24-4.53,8.53-6.73-1.57-4.9A17.86,17.86,0,0,1,498.76,362.62Z" transform="translate(0.5 -198.06)"/><ellipse class="cls-10" cx="496.71" cy="190.47" rx="11.98" ry="12.06"/><ellipse class="cls-7" cx="140.01" cy="192.86" rx="50.95" ry="51.29"/><ellipse class="cls-8" cx="140.01" cy="192.86" rx="35.21" ry="35.45"/><path class="cls-9" d="M142.06,365c-1.4-10.29-3.69-10.29-5.1,0A17.86,17.86,0,0,1,116,380.38c-10.1-1.83-10.81.38-1.57,4.9a18.13,18.13,0,0,1,8,24.88c-4.84,9.16-3,10.52,4.13,3a17.69,17.69,0,0,1,25.85,0c7.11,7.49,9,6.13,4.12-3a18.13,18.13,0,0,1,8-24.88c9.24-4.53,8.53-6.73-1.57-4.9A17.85,17.85,0,0,1,142.06,365Z" transform="translate(0.5 -198.06)"/><ellipse class="cls-10" cx="140.01" cy="192.86" rx="11.98" ry="12.06"/></svg>