<?xml version="1.0" encoding="utf-8"?>
<!-- Generator: Adobe Illustrator 21.0.2, SVG Export Plug-In . SVG Version: 6.00 Build 0)  -->
<svg version="1.1" id="Layer_1" xmlns="http://www.w3.org/2000/svg" xmlns:xlink="http://www.w3.org/1999/xlink" x="0px" y="0px"
	 viewBox="0 0 240.391 226.414" enable-background="new 0 0 240.391 226.414" xml:space="preserve">
<defs>
	
	<script  language="JavaScript" xlink:href="svg.js"></script>
</defs>
<script  type="text/JavaScript">
	<![CDATA[
function notify( ref, type ) {
    var event = document.createEvent("CustomEvent");
    event.initEvent(type,true,true);
    ref.dispatchEvent(event);
}

		
		
		
		
		
		
		
		
		
		
		
		]]>
</script>
<g>
	<g>
		<path fill="#EA8E10" d="M168.026,16.669c-13.312-2.005-30.541-3.215-49.379-3.215c-17.388,0-33.399,1.03-46.229,2.765V40.46H36.65
			v93.13H203.79V40.91h-35.765V16.669L168.026,16.669z"/>
	</g>
	<path fill="#231F20" d="M168.026,47.872V16.768c18.291,3.174,30.136,8.172,30.136,13.814c3.104,0,5.629,2.596,5.629,5.802v11.488
		H168.026z"/>
	<path fill="#231F20" d="M72.415,47.374V16.269C54.124,19.444,42.28,24.442,42.28,30.084c-3.105,0-5.632,2.594-5.632,5.801v11.488
		L72.415,47.374L72.415,47.374z"/>
</g>
<path fill="#F5A909" d="M213.098,132.777c-4.225-4.224-12.777-4.512-19.145-8.106c-25.554-14.445-43.263-19.029-73.162-19.029
	c-0.188,0-0.381,0.002-0.568,0.004c-0.188-0.001-0.385-0.004-0.569-0.004c-29.899,0-47.606,4.584-73.161,19.029
	c-6.367,3.597-14.923,3.886-19.146,8.106c-12.045,12.046-4.393,37.98-4.393,37.98c0,0.695,0.555,1.248,1.241,1.248h96.024h96.027
	c0.688,0,1.244-0.553,1.244-1.248C217.49,170.756,225.145,144.823,213.098,132.777z"/>
<path fill="#F5A909" d="M143.329,14.193c0-2.861-9.302-9.327-23.238-9.327c-13.922,0-22.979,6.466-22.979,9.327"/>
<path fill="#231F20" d="M216.016,172.004h-18.505h-39.844h-75.73H42.691H24.429c-0.729,0-1.311,0.83-1.311,1.861l3.521,8.496
	c0,1.078,0.562,1.967,1.252,1.967h13.404v26.131c0,0.854,0.625,1.549,1.395,1.549h39.246c0.768,0,1.393-0.694,1.393-1.549v-16.332
	h72.936v16.332c0,0.854,0.619,1.549,1.404,1.549h39.844c0.779,0,1.398-0.694,1.398-1.549v-26.131h13.629
	c0.699,0,1.266-0.889,1.266-1.967l3.518-8.496C217.321,172.835,216.729,172.004,216.016,172.004z"/>
<path fill="#12100B" stroke="#4D4947" stroke-width="6" d="M162.682,155.443c0,3.901-3.162,7.063-7.063,7.063H84.823
	c-3.902,0-7.064-3.162-7.064-7.063v-26.56c0-3.907,3.162-7.069,7.064-7.069h70.795c3.901,0,7.063,3.162,7.063,7.069V155.443
	L162.682,155.443z"/>
<path fill="#D0D0D0" stroke="#231F20" stroke-width="4" d="M213.374,147.778c0,8.426-6.817,15.258-15.256,15.258
	c-8.41,0-15.248-6.83-15.248-15.258c0-8.424,6.838-15.255,15.248-15.255C206.557,132.524,213.374,139.354,213.374,147.778z"/>
<path fill="#FFFFFF" stroke="#231F20" stroke-width="2" d="M207.565,147.778c0,5.217-4.222,9.443-9.442,9.443
	c-5.207,0-9.439-4.229-9.439-9.443c0-5.214,4.232-9.441,9.439-9.441C203.343,138.336,207.565,142.564,207.565,147.778z"/>
<path fill="#D0D0D0" stroke="#231F20" stroke-width="4" d="M57.571,147.778c0,8.426-6.817,15.258-15.259,15.258
	c-8.409,0-15.248-6.83-15.248-15.258c0-8.424,6.839-15.255,15.248-15.255C50.751,132.524,57.571,139.354,57.571,147.778z"/>
<path fill="#FFFFFF" stroke="#231F20" stroke-width="2" d="M51.757,147.778c0,5.217-4.221,9.443-9.443,9.443
	c-5.207,0-9.438-4.229-9.438-9.443c0-5.214,4.23-9.441,9.438-9.441C47.538,138.336,51.757,142.564,51.757,147.778z"/>
<line fill="none" stroke="#4D4947" stroke-width="5" x1="79.828" y1="138.493" x2="160.614" y2="138.493"/>
<line fill="none" stroke="#4D4947" stroke-width="5" x1="79.828" y1="130.113" x2="160.614" y2="130.113"/>
<line fill="none" stroke="#4D4947" stroke-width="5" x1="79.828" y1="146.874" x2="160.614" y2="146.874"/>
<line fill="none" stroke="#4D4947" stroke-width="5" x1="79.828" y1="155.254" x2="160.614" y2="155.254"/>
<path fill="#FFFFFF" d="M115.517,91.793c0,0.688-0.555,1.249-1.244,1.249H43.56c-0.688,0-1.246-0.562-1.246-1.249V57.367
	c0-0.688,0.56-1.25,1.246-1.25h70.713c0.689,0,1.244,0.562,1.244,1.25V91.793z"/>
<path fill="#FFFFFF" d="M198.12,91.793c0,0.688-0.556,1.249-1.242,1.249h-70.701c-0.692,0-1.264-0.562-1.264-1.249V57.367
	c0-0.688,0.567-1.25,1.264-1.25h70.701c0.688,0,1.242,0.562,1.242,1.25V91.793z"/>
<g>
	<path fill="#231F20" d="M28.247,86.558c0,0.682-0.549,1.243-1.236,1.243H10.199c-0.684,0-1.248-0.562-1.248-1.243V62.517
		c0-0.689,0.564-1.243,1.248-1.243h16.811c0.689,0,1.236,0.554,1.236,1.243V86.558z"/>
	<path fill="none" stroke="#13110C" stroke-width="6" d="M18.601,87.801c0,5.763,7.994,10.417,17.886,10.417"/>
</g>
<g>
	<path fill="#231F20" d="M212.143,86.558c0,0.682,0.565,1.243,1.241,1.243h16.812c0.677,0,1.242-0.562,1.242-1.243V62.517
		c0-0.689-0.565-1.243-1.242-1.243h-16.812c-0.676,0-1.241,0.554-1.241,1.243V86.558z"/>
	<path fill="none" stroke="#13110C" stroke-width="6" d="M221.794,87.801c0,5.763-7.994,10.417-17.883,10.417"/>
</g>
<path fill="#E30613" stroke="#DD1215" stroke-width="0.2339" d="M173.449,34.682c0,5.866,4.735,10.608,10.596,10.608
	c5.854,0,10.603-4.742,10.603-10.608c0-5.839-4.748-10.596-10.603-10.596C178.186,24.086,173.449,28.843,173.449,34.682z"/>
<path fill="#E30613" stroke="#DD1215" stroke-width="0.2339" d="M44.56,34.682c0,5.866,4.744,10.608,10.584,10.608
	c5.863,0,10.613-4.742,10.613-10.608c0-5.839-4.75-10.596-10.613-10.596C49.304,24.086,44.56,28.843,44.56,34.682z"/>
<g>
	<path d="M74.525,24.132c0.953-0.173,2.46-0.303,3.989-0.303c2.183,0,3.587,0.324,4.643,1.06c0.878,0.562,1.402,1.427,1.402,2.573
		c0,1.406-1.078,2.638-2.857,3.2v0.043c1.604,0.346,3.484,1.492,3.484,3.654c0,1.254-0.575,2.206-1.43,2.919
		c-1.179,0.93-3.085,1.362-5.845,1.362c-1.505,0-2.659-0.086-3.389-0.173L74.525,24.132L74.525,24.132z M76.707,30.099h1.979
		c2.311,0,3.663-1.038,3.663-2.443c0-1.708-1.505-2.378-3.713-2.378c-1.003,0-1.58,0.065-1.932,0.13L76.707,30.099L76.707,30.099z
		 M76.707,37.083c0.427,0.065,1.054,0.087,1.831,0.087c2.258,0,4.34-0.714,4.34-2.833c0-1.989-1.981-2.811-4.364-2.811h-1.807
		V37.083L76.707,37.083z"/>
	<path d="M90.305,23.937v8.627c0,3.265,1.682,4.648,3.938,4.648c2.509,0,4.112-1.427,4.112-4.648v-8.627h2.207v8.498
		c0,4.476-2.732,6.313-6.396,6.313c-3.462,0-6.07-1.708-6.07-6.227v-8.584H90.305z"/>
	<path d="M104.053,36.218c0.979,0.519,2.408,0.952,3.913,0.952c2.232,0,3.537-1.017,3.537-2.487c0-1.362-0.903-2.141-3.188-2.897
		c-2.76-0.843-4.465-2.076-4.465-4.13c0-2.271,2.184-3.957,5.469-3.957c1.73,0,2.984,0.346,3.737,0.714l-0.603,1.535
		c-0.553-0.26-1.683-0.692-3.211-0.692c-2.31,0-3.188,1.189-3.188,2.184c0,1.362,1.028,2.032,3.361,2.811
		c2.858,0.951,4.312,2.14,4.312,4.281c0,2.249-1.932,4.195-5.92,4.195c-1.631,0-3.411-0.411-4.312-0.93L104.053,36.218z"/>
	<path d="M121.889,31.959v1.405h-6.194v-1.405H121.889z"/>
	<path d="M124.549,24.132c0.953-0.173,2.459-0.303,3.989-0.303c2.182,0,3.587,0.324,4.641,1.06c0.878,0.562,1.404,1.427,1.404,2.573
		c0,1.406-1.078,2.638-2.858,3.2v0.043c1.605,0.346,3.485,1.492,3.485,3.654c0,1.254-0.576,2.206-1.43,2.919
		c-1.18,0.93-3.086,1.362-5.846,1.362c-1.506,0-2.659-0.086-3.388-0.173L124.549,24.132L124.549,24.132z M126.733,30.099h1.981
		c2.309,0,3.663-1.038,3.663-2.443c0-1.708-1.506-2.378-3.713-2.378c-1.004,0-1.58,0.065-1.933,0.13L126.733,30.099L126.733,30.099z
		 M126.733,37.083c0.428,0.065,1.055,0.087,1.831,0.087c2.258,0,4.34-0.714,4.34-2.833c0-1.989-1.98-2.811-4.363-2.811h-1.808
		V37.083L126.733,37.083z"/>
	<path d="M149.962,38.034c-0.803,0.346-2.408,0.692-4.465,0.692c-4.768,0-8.355-2.595-8.355-7.373c0-4.562,3.587-7.654,8.829-7.654
		c2.107,0,3.438,0.389,4.015,0.649l-0.526,1.535c-0.827-0.346-2.007-0.605-3.411-0.605c-3.964,0-6.598,2.184-6.598,6.011
		c0,3.567,2.383,5.859,6.497,5.859c1.329,0,2.685-0.238,3.562-0.605L149.962,38.034z"/>
	<path d="M152.698,38.51V23.937h2.384l5.418,7.373c1.254,1.708,2.231,3.244,3.035,4.735l0.051-0.021
		c-0.201-1.946-0.251-3.719-0.251-5.989v-6.098h2.058V38.51h-2.207l-5.368-7.394c-1.181-1.622-2.31-3.287-3.16-4.865l-0.075,0.021
		c0.125,1.838,0.176,3.589,0.176,6.011v6.227L152.698,38.51L152.698,38.51z"/>
</g>
<g>
	<defs>
		<path id="SVGID_1_" d="M198.12,91.793c0,0.688-0.556,1.249-1.242,1.249h-70.701c-0.692,0-1.264-0.562-1.264-1.249V57.367
			c0-0.688,0.567-1.25,1.264-1.25h70.701c0.688,0,1.242,0.562,1.242,1.25V91.793z"/>
	</defs>
	<clipPath id="SVGID_2_">
		<use xlink:href="#SVGID_1_"  overflow="visible"/>
	</clipPath>
	<g clip-path="url(#SVGID_2_)">
		<path fill="#030303" d="M158.332,76.215c-0.228-3.002,0.81-5.542,2.967-7.749c-0.737,0-1.331-0.026-1.923,0.004
			c-3.494,0.178-5.069-2.858-4.703-5.446c0.454-3.203,2.956-5.926,6.106-6.636c0.159-0.036,0.455,0.084,0.424-0.271
			c0.361,0,0.721,0,1.082,0c-0.021,0.213,0.166,0.19,0.274,0.212c3.629,0.733,5.183,5.146,3.812,8.03
			c-0.18,0.378-0.355,0.758-0.542,1.158c7.208,0.047,5.95,0.574,9.339,2.009c-0.113-0.625-0.248-1.206-0.319-1.794
			c-0.224-1.859,0.033-3.611,1.347-5.052c2.286-2.509,5.726-2.535,8.114-0.085c2.948,3.025,1.995,8.618-1.76,10.368
			c-1.132,0.528-2.313,0.511-3.509,0.37c-0.352-0.042-0.699-0.13-1.034-0.193c-0.167,0.178-0.059,0.332-0.014,0.465
			c0.839,2.484,1.001,4.974,0.097,7.481c-0.05,0.14-0.022,0.308-0.03,0.464c-0.077-0.012-0.155-0.025-0.232-0.037
			c-0.458-1.173-1.52-1.245-2.59-1.328c0.296-0.735,0.704-1.34,0.83-2.055c0.015-0.058,0.029-0.116,0.044-0.174
			c0.591-1.728,0.631-3.456-0.01-5.182l-0.016-0.054c-0.278-1.061-0.763-2.002-1.59-2.745l-0.037,0.039l0.038-0.037
			c-0.564-0.611-1.185-1.105-2.091-1.003c-0.043,0.007-0.087,0.015-0.13,0.022c-0.726,0.07-0.959,0.772-1.456,1.136l0.004,0.005
			c-0.17-0.548-0.421-1.05-0.834-1.459l-0.007-0.01c-0.697-0.821-1.424-0.991-2.525-0.588l-0.035,0.001
			c-0.223,0.018-0.419,0.102-0.587,0.249l-0.01,0.005c-0.336,0.133-0.633,0.322-0.863,0.606c-2.916,2.208-3.967,5.07-2.943,8.694
			c-1.69-0.488-3.304-0.931-4.518,0.766C158.443,76.34,158.387,76.277,158.332,76.215z"/>
		<path fill="#251A14" d="M166.882,119.536c-0.626-0.919-1.159-1.877-1.246-3.019c0.022-0.412,0.13-0.841-0.238-1.174
			c-0.048-0.018-0.096-0.036-0.144-0.054c-0.063-0.059-0.101-0.03-0.129,0.035c-0.123,0.057-0.246,0.114-0.369,0.17
			c-0.057,0.031-0.114,0.061-0.171,0.092c-2.107,1.001-4.33,1.514-6.656,1.684c-2.41,0.175-4.728-0.139-6.936-1.11
			c-2.34-1.029-3.741-2.865-4.38-5.316c-0.047-0.182,0.087-0.496-0.285-0.504c0-0.27,0-0.541,0-0.811
			c0.097,0.023,0.189,0.005,0.207-0.102c0.304-1.828,1.645-2.58,3.218-3.045c2.286-0.675,4.581-0.453,6.858,0.07
			c0.668,0.153,1.315,0.453,1.708-0.429c0.035-0.078,0.186-0.104,0.283-0.154c0.188,0.014,0.306,0.095,0.292,0.303
			c-0.113-0.029-0.212-0.028-0.308,0.065c-0.53,0.514-0.501,1.177,0.086,1.854c1.38,1.591,4.737,2.33,6.448,0.615
			c0.066,0.055,0.132,0.11,0.198,0.165c-0.479,0.683-1.232,0.931-1.954,1.225c-0.641-0.047-1.285-0.075-1.923-0.147
			c-0.349-0.039-0.434,0.089-0.366,0.397c-0.137-0.042-0.275-0.084-0.412-0.127c-1.175-0.788-2.342-1.588-3.631-2.187
			c-0.171-0.116-0.343-0.232-0.545-0.369c0.117-0.035,0.191-0.086,0.243-0.069c0.396,0.134,0.788,0.281,1.217,0.437
			c0.011-0.56-0.128-0.97-0.746-1.071c-0.286-0.047-0.566-0.13-0.849-0.196c-0.441-0.191-0.91-0.011-1.358-0.102
			c-0.307-0.349-0.716-0.169-1.083-0.209c-1.576-0.184-3.113,0.067-4.586,0.574c-1.803,0.621-2.567,1.693-2.276,3.496
			c0.316,1.961,1.368,3.476,3.028,4.568c0.197,0.221,0.455,0.345,0.72,0.459c1.744,0.925,3.632,1.253,5.576,1.291
			c2.54,0.049,5.009-0.373,7.4-1.238c0.154,0.003,0.317,0.031,0.391-0.161l-0.014,0.011c0.053-0.029,0.106-0.057,0.16-0.086
			c0.344-0.291,1.049-0.232,1.071-0.786c0.057-1.447,0.383-2.838,0.699-4.236c0.137-0.207,0.2-0.439,0.227-0.683
			c0.206-0.257,0.051-0.524,0.02-0.788c0.207-0.034,0.395-0.08,0.393-0.355c-0.003-0.511,0.248-0.917,0.554-1.298
			c-0.083,0.388,0.666,0.365,0.412,0.836c-0.178-0.035-0.225-0.355-0.424-0.257c-0.17,0.083-0.229,0.3-0.246,0.508
			c-0.032,0.393,0.073,0.719,0.306,1.053c1.276,1.828,4.617,1.858,6.054,0.501c0.24-0.226,0.43-0.518,0.595-0.807
			c0.191-0.336,0.206-0.741-0.077-1.006c-0.515-0.483-1.058-0.978-1.869-0.814c0.044-0.141,0.088-0.282,0.132-0.423
			c0.669,0.056,1.262,0.282,1.74,0.77c0.155,0.159,0.284,0.359,0.548,0.344c0.086,0.124,0.221,0.124,0.351,0.137
			c0.108,0.048,0.217,0.096,0.325,0.144c0.083,0.111,0.202,0.131,0.329,0.134c0.202,0.101,0.404,0.202,0.606,0.303
			c0.144,0.067,0.287,0.134,0.431,0.201c0.106,0.129,0.245,0.196,0.407,0.223c0.052,0.02,0.104,0.039,0.156,0.058
			c0.574,0.37,1.147,0.74,1.721,1.111c1.029,0.901,2.13,1.724,2.954,2.84c0.375,0.508,0.737,1.02,0.995,1.601
			c1.166,2.629-0.345,4.916-2.708,6.264c-1.382,0.789-2.903,1.204-4.497,1.327c-0.13,0.01-0.256,0.068-0.383,0.103
			c-0.676,0.001-1.352,0.001-2.028,0.002c-1.027-0.224-2.079-0.322-3.061-0.758c-0.991-0.44-1.916-0.967-2.728-1.687
			C167.227,119.734,167.047,119.643,166.882,119.536z M174.16,109.64c0,0-0.001,0.008-0.001,0.008
			c-0.785,0.91-1.801,1.394-2.974,1.502c-0.753,0.069-1.517,0.01-2.276,0.008c-0.693-0.498-1.443-0.922-2.049-1.744
			c-0.609,2.192-1.147,4.223-0.956,6.363c0.305,3.432,2.563,5.19,5.668,5.802c0.448,0.18,0.912,0.264,1.396,0.228
			c0.742,0.003,1.492,0.083,2.223-0.004c2.298-0.273,4.438-0.865,6.203-2.561c1.758-1.689,1.364-3.729,0.552-5.014
			c-0.637-1.009-1.468-1.847-2.357-2.628c-1.127-0.991-2.334-1.868-3.709-2.492c-1.208-0.868-1.29-0.846-1.711,0.466
			C174.161,109.594,174.162,109.618,174.16,109.64z"/>
		<path fill="#060605" d="M151.703,90.044c0.068-0.865-0.5-1.398-0.997-1.991c-0.886-1.057-0.988-2.236-0.337-3.156
			c0.481-0.679,1.188-0.971,1.968-1.011c1.657-0.084,3.311-0.221,4.974-0.201c0.988,0.012,1.965-0.155,2.933-0.353
			c0.143-0.029,0.334,0.005,0.394-0.193c0.069-0.228-0.162-0.225-0.263-0.32c-0.181-0.17-0.346-0.35-0.427-0.591
			c0.064-0.068,0.129-0.135,0.193-0.203c0.065,0.035,0.13,0.07,0.195,0.105c0.283,0.517,0.735,0.824,1.271,1.028l0.004,0.002
			c0.607,0.456,1.161,1.016,1.999,1.017c-0.007,0.037,0.008,0.058,0.046,0.061c0.407,0.506,0.779,1.045,1.228,1.51
			c1.227,1.269,2.906,1.509,4.336,0.48c0.896-0.645,1.865-0.957,2.891-1.208c0.102,0.048,0.203,0.096,0.305,0.144
			c-0.231,0.124-0.359,0.23-0.09,0.485c1.392,1.315,2.791,2.613,4.407,3.662c2.015,1.307,2.251,3.234,0.647,5.016
			c-0.555,0.617-1.129,1.216-1.694,1.824c-0.211-0.007-0.428-0.023-0.43,0.286c-0.066-0.011-0.136-0.04-0.198-0.029
			c-2.014,0.357-3.353-1.057-2.943-3.082c0.154-0.759,0.849-1.065,1.241-1.62c0.005-0.099,0.009-0.199,0.014-0.298
			c0.037-0.309-0.235-0.421-0.404-0.571c-0.956-0.848-1.976-1.613-3.101-2.223c-0.227-0.123-0.462-0.462-0.771-0.191
			c-0.352,0.308-0.693,0.649-0.859,1.097c-0.081,0.219,0.14,0.233,0.297,0.238c0.447,0.014,0.894,0.017,1.324,0.166
			c-0.001,0.079-0.003,0.159-0.004,0.238c-1.663-0.241-3.227,0.058-4.701,0.854c-0.059-0.061-0.119-0.121-0.178-0.182
			c0.989-0.497,1.012-0.573,0.338-1.448c-1.082-1.407-2.638-1.897-4.291-2.156c-1.382-0.217-2.644,0.236-3.87,0.815
			c-0.309-0.165-0.51,0.262-0.81,0.147c0.105-0.143,0.211-0.285,0.316-0.428c0.3-0.299-0.101-0.27-0.183-0.39
			c0.395-0.025,0.904-0.113,0.919-0.505c0.016-0.411-0.532-0.449-0.883-0.529c-2.17-0.497-4.588,1.453-4.623,3.715
			C151.824,90.052,151.764,90.048,151.703,90.044z"/>
		<path fill="#060605" d="M167.684,108.059c0.253-0.472-0.496-0.449-0.412-0.836c0,0,0.005-0.006,0.005-0.006
			c0.121-0.005,0.328,0.043,0.323-0.095c-0.008-0.243-0.254-0.126-0.399-0.165c-0.533-0.783-0.933-1.643-1.246-2.523
			c-0.219-0.615-0.541-0.761-1.131-0.717c-0.576,0.043-1.167,0.067-1.729-0.145c0.143-0.191,0.362-0.09,0.542-0.141
			c0.953-0.038,1.915,0.088,2.85-0.248c0.268-0.096,0.442-0.245,0.503-0.475c0.07-0.263-0.212-0.29-0.376-0.384
			c0.014-0.189,0.152-0.227,0.303-0.249c1.183,0.472,2.388,0.339,3.595,0.132c0.077,0.021,0.154,0.043,0.23,0.064
			c-0.083,0.448-0.506,0.365-0.788,0.485c-0.363,0.155-0.301,0.365-0.065,0.526c1.06,0.719,1.874,1.735,2.952,2.429
			c0.03,0.14,0.06,0.28,0.09,0.42c-0.945-0.433-1.686-1.191-2.648-1.749c0.022,0.166,0.014,0.236,0.041,0.289
			c0.202,0.399,0.401,0.801,0.62,1.191c0.204,0.363,0.354,0.789,0.851,0.871c0.005,0.078,0.01,0.156,0.014,0.234
			c0.011-0.075,0.023-0.149,0.034-0.224c0.103,0.024,0.207,0.048,0.31,0.072c-0.044,0.141-0.088,0.282-0.132,0.423
			c0.409,0.539,0.386,0.988-0.162,1.265C170.522,109.178,168.915,109.234,167.684,108.059z"/>
		<path fill="#292A29" d="M173.371,91.408c-0.005,0.099-0.009,0.199-0.014,0.298c-1.219-0.093-1.985,0.339-2.347,1.363
			c-0.36,1.019-0.319,2.018,0.148,3.013c0.692,1.474,2.859,2.307,4.099,0.356c0.002-0.308,0.219-0.293,0.43-0.286
			c-0.177,0.75-0.716,1.209-1.375,1.454c-0.506,0.188-0.822,0.45-1.021,0.941c-0.114,0.281-0.296,0.556-0.592,0.709
			c-0.11-0.003-0.22-0.005-0.331-0.008c0.331-0.41,0.786-0.735,0.914-1.312c-1.7-0.249-2.591-1.311-2.836-2.907
			c-0.256-1.67,0.263-3.006,2.007-3.666c-0.797-0.673-1.684-0.97-2.602-1.199c0.001-0.079,0.003-0.159,0.004-0.238
			c1.018,0.087,1.879,0.552,2.668,1.156C172.786,91.28,173.035,91.435,173.371,91.408z"/>
		<path fill="#F4F4F4" d="M172.155,106.814c-0.103-0.024-0.207-0.048-0.31-0.072c0,0-0.048-0.01-0.048-0.01
			c-0.496-0.082-0.647-0.508-0.851-0.871c-0.219-0.39-0.418-0.791-0.62-1.191c-0.027-0.053-0.019-0.123-0.041-0.289
			c0.962,0.558,1.702,1.316,2.647,1.748c0.09,0.006,0.158-0.022,0.176-0.122c0,0-0.001-0.001-0.001-0.001
			c-0.296,0.304,0.088,0.326,0.196,0.391c0.48,0.288,0.98,0.541,1.473,0.806c-0.351,0.13-0.322,0.436-0.333,0.723
			c-0.264,0.015-0.393-0.185-0.548-0.344C173.418,107.095,172.824,106.87,172.155,106.814z"/>
		<path fill="#292A29" d="M178.858,108.261c0.631-0.136,1.223,0.091,1.826,0.185c1.198,0.187,2.464-0.048,3.596,0.374
			c0.887,0.33,1.688-0.337,2.521,0.031c0.25,0.111,0.544,0.124,0.806,0.24C184.713,108.519,181.713,109.173,178.858,108.261z"/>
		<path fill="#251A14" d="M172.369,99.247c0.11,0.003,0.22,0.005,0.331,0.008c-0.128,0.539-0.256,1.078-0.385,1.617
			c-0.161,0.671-0.903,1.326-1.564,1.382c-0.028-0.047-0.056-0.094-0.084-0.141c0.904-0.424,1.364-1.177,1.573-2.117
			c-0.006-0.059-0.012-0.117-0.018-0.176c-0.025,0.033-0.051,0.066-0.076,0.099c-0.711,0.393-1.485,0.612-2.262,0.83
			c-0.698,0.197-1.271-0.11-1.883-0.412C169.69,100.838,171.073,100.213,172.369,99.247z"/>
		<path fill="#292A29" d="M174.776,107.205c-0.493-0.266-0.994-0.518-1.473-0.806c-0.109-0.065-0.492-0.087-0.196-0.391
			c0.127-0.165,0.246-0.021,0.334,0.034c1.429,0.889,2.999,1.428,4.61,1.863c0.24,0.065,0.499,0.056,0.188,0.372
			c-0.178-0.039-0.356-0.079-0.534-0.118c-0.362-0.089-0.725-0.178-1.087-0.267c-0.077-0.026-0.154-0.051-0.231-0.077
			C175.849,107.611,175.312,107.408,174.776,107.205z"/>
		<path fill="#251A14" d="M177.825,79.512c0.077,0.012,0.155,0.025,0.232,0.037c0.018,0.033,0.04,0.064,0.053,0.099
			c0.006,0.015-0.007,0.038-0.011,0.057c0.001,0.066,0.001,0.132,0.002,0.198c0.151,0.925-0.226,1.661-0.833,2.311
			c-0.831,0.89-1.768,1.629-2.935,2.037c-0.051-0.042-0.102-0.083-0.153-0.125c0.848-0.508,1.71-0.996,2.377-1.75
			c0.059-0.055,0.117-0.11,0.176-0.165c0.481-0.437,0.873-0.931,1.009-1.587c0,0-0.008,0-0.008,0
			c0.041-0.102,0.082-0.205,0.122-0.307c0.159-0.177,0.162-0.354-0.001-0.53C177.846,79.696,177.835,79.604,177.825,79.512z"/>
		<path fill="#F4F4F4" d="M178.768,110.238c-0.574-0.371-1.147-0.741-1.721-1.111c0.126-0.403,0.338-0.168,0.497-0.047
			C177.992,109.422,178.754,109.438,178.768,110.238z"/>
		<path fill="#292A29" d="M174.181,84.127c0.051,0.042,0.102,0.083,0.153,0.125c-0.568,0.454-1.244,0.679-1.917,0.912
			c-0.102-0.048-0.203-0.096-0.305-0.144c0.341-0.157,0.681-0.315,1.022-0.472c0,0,0.001,0.007,0.001,0.007
			C173.484,84.412,173.832,84.27,174.181,84.127z"/>
		<path fill="#F4F4F4" d="M177.704,108.158c0.178,0.039,0.356,0.079,0.534,0.118c-0.059,0.434-0.329,0.325-0.578,0.212
			C177.345,108.345,177.731,108.275,177.704,108.158z"/>
		<path fill="#F4F4F4" d="M176.891,109.069c-0.162-0.027-0.301-0.094-0.407-0.223c0.084-0.117,0.113-0.363,0.285-0.3
			C176.998,108.63,176.868,108.886,176.891,109.069z"/>
		<path fill="#F4F4F4" d="M178.705,108.655c0.02,0.069,0.059,0.145,0.059,0.22c0,0.081-0.019,0.203-0.139,0.162
			c-0.052-0.018-0.091-0.133-0.098-0.208C178.518,108.746,178.543,108.652,178.705,108.655z"/>
		<path fill="#F4F4F4" d="M176.054,108.645c-0.202-0.101-0.404-0.202-0.606-0.303C175.698,108.347,176.038,108.172,176.054,108.645z
			"/>
		<path fill="#F4F4F4" d="M176.385,107.814c0.077,0.026,0.154,0.051,0.231,0.077c-0.037,0.121,0.074,0.369-0.166,0.319
			C176.275,108.173,176.381,107.955,176.385,107.814z"/>
		<path fill="#292A29" d="M173.107,106.009c-0.018,0.1-0.086,0.127-0.176,0.122c-0.029-0.14-0.059-0.28-0.089-0.42
			C172.971,105.774,173.191,105.756,173.107,106.009z"/>
		<path fill="#292A29" d="M178.102,79.903c-0.001-0.066-0.002-0.132-0.002-0.198C178.1,79.771,178.101,79.837,178.102,79.903z"/>
		<path fill="#F4F4F4" d="M175.119,108.209c-0.108-0.048-0.217-0.096-0.325-0.144C174.932,108.046,175.057,108.055,175.119,108.209z
			"/>
		<path fill="#060605" d="M170.667,102.113c0.028,0.047,0.056,0.094,0.084,0.141c0,0-0.006,0.015-0.007,0.016
			c-0.077-0.021-0.154-0.042-0.231-0.063C170.533,102.125,170.58,102.087,170.667,102.113z"/>
		<path fill="#060605" d="M158.893,106.173c0.015-0.209-0.104-0.29-0.292-0.303c0.131-0.237-0.019-0.427-0.097-0.635
			c-0.363-0.964-0.719-1.93-1.078-2.896c0.076-0.168,0.211-0.245,0.391-0.252c0.318,0.099,0.636,0.199,0.954,0.298
			c0.046,0.071,0.086,0.199,0.139,0.204c0.807,0.088,1.679,0.445,2.261-0.494c0.235,0.196,0.177,0.635,0.575,0.697
			c-0.022,0.129-0.043,0.258-0.065,0.387c0.298,0.919,0.607,1.833,1.278,2.568c0.016,0.179-0.029,0.398,0.26,0.4
			c-0.04,0.33,0.159,0.593,0.37,0.753c0.478,0.365,0.261,0.547-0.127,0.697c-0.916,0.354-1.849,0.356-2.771,0.031
			C159.926,107.359,159.175,107.049,158.893,106.173z"/>
		<path fill="#292A29" d="M156.473,87.375c0.082,0.12,0.483,0.091,0.183,0.39c-0.187-0.426-0.503-0.135-0.7-0.07
			c-1.288,0.423-2.405,1.144-3.203,2.244c-1.223,1.685-1.475,3.479-0.387,5.357c0.316,0.546,0.683,1.053,1.061,1.555
			c0.027,0.036,0.004,0.111,0.004,0.153c-0.226,0.152-0.307-0.259-0.504-0.121c0,0.255,0,0.486,0,0.898
			c-0.508-0.864-0.234-1.873-1.016-2.409c-0.449,0.67-0.431,1.369,0.064,2.077c0.49,0.703,1.167,1.168,1.93,1.524
			c0,0.084-0.001,0.167-0.001,0.251c-1.245-0.234-2.068-1.001-2.613-2.099c-0.323-0.652-0.151-1.278,0.222-1.843
			c0.169-0.256,0.188-0.451,0.081-0.733c-0.431-1.14-0.428-2.295,0.101-3.394c0.197-0.409-0.072-0.742,0.009-1.107
			c0.061,0.004,0.121,0.007,0.182,0.011c0.323,0.368,0.357-0.08,0.442-0.189C153.393,88.503,154.727,87.6,156.473,87.375z"/>
		<path fill="#251A14" d="M153.904,99.221c0-0.084,0.001-0.167,0.001-0.251c0.19,0.023,0.351,0.027,0.369-0.241
			c0.095-1.422,0.524-2.795,0.37-4.263c-0.24-2.279,0.193-4.436,1.696-6.274c0.3,0.115,0.501-0.313,0.81-0.148
			c-0.063,0.305-0.44,0.267-0.559,0.511c-0.566,0.517-0.841,1.199-1.08,1.902c-0.396,0.757-0.441,1.595-0.509,2.416
			c-0.103,1.254,0.328,2.463,0.37,3.724c-0.225-0.168-0.382-0.258-0.439,0.164c-0.108,0.799-0.196,1.597-0.266,2.401
			c-0.05,0.569,0.143,0.917,0.548,1.266c0.79,0.682,1.735,1.107,2.603,1.66c-0.18,0.007-0.315,0.083-0.391,0.252
			c-0.171-0.261-0.462-0.343-0.718-0.47c-0.892-0.446-1.619-1.097-2.34-1.773C154.087,99.833,154.37,99.337,153.904,99.221z"/>
		<path fill="#292A29" d="M158.332,76.215c0.056,0.062,0.111,0.125,0.167,0.187c-0.719,1.71-0.18,3.195,0.825,4.595
			c0.041,0.089,0.083,0.178,0.124,0.267c-0.054,0.059-0.107,0.119-0.161,0.178c-1.13-1.427-1.884-2.947-1.175-4.821
			C158.167,76.479,158.258,76.35,158.332,76.215z"/>
		<path fill="#251A14" d="M159.288,81.442c0.054-0.059,0.107-0.119,0.161-0.178c0.202,0.199,0.404,0.398,0.605,0.597l0.01,0.01
			c0.026,0.052,0.052,0.103,0.078,0.155c-0.064,0.068-0.129,0.135-0.193,0.203C159.635,82.045,159.469,81.738,159.288,81.442z"/>
		<path fill="#F9DDB2" d="M159.324,80.997c-1.005-1.401-1.545-2.885-0.825-4.595c1.214-1.697,2.828-1.254,4.518-0.766
			c-1.024-3.625,0.027-6.486,2.943-8.694c0.424-0.008,0.853-0.008,0.863-0.606c0,0,0.01-0.005,0.01-0.005
			c0.255,0.058,0.536,0.174,0.587-0.249c0,0,0.035-0.001,0.035-0.001c0.903-0.065,1.732,0.183,2.525,0.588
			c0,0,0.007,0.01,0.007,0.01c0.064,0.252,0.115,0.508,0.196,0.754c0.106,0.325,0.17,0.702,0.638,0.705c0,0-0.004-0.005-0.004-0.005
			c0.001,0.29,0.165,0.217,0.291,0.11c0.201-0.171,0.376-0.421,0.637-0.449c0.531-0.058,0.572-0.386,0.528-0.796
			c0.043-0.007,0.087-0.015,0.13-0.022c0.103,0.279,0.347,0.223,0.559,0.228c0.185,0.004,0.357,0.023,0.442,0.217
			c0.212,0.484,0.642,0.538,1.09,0.558l-0.038,0.037c0,0,0.037-0.039,0.037-0.039c0.028,0.877,0.969,1.308,1.088,2.165
			c0.01,0.07,0.117,0.582,0.502,0.579c0,0,0.016,0.054,0.016,0.054c-0.029,0.689-0.066,1.369,0.187,2.045
			c0.11,0.295,0.152,0.719,0.02,0.979c-0.363,0.713-0.188,1.436-0.196,2.157c-0.015,0.058-0.029,0.116-0.044,0.174
			c-0.284,0.071-0.434,0.296-0.577,0.52c-0.217,0.342-0.164,0.77-0.371,1.127c-0.254,0.437,0.009,0.787,0.523,0.798
			c0.324,0.007,0.65-0.093,0.973,0.115c0.713,0.46,0.964,1.166,1.122,1.936c0,0,0.008,0,0.008,0c-0.54,0.4-1.052,0.817-1.009,1.587
			c-0.059,0.055-0.117,0.11-0.176,0.165c-0.215-0.005-0.42-0.07-0.619,0.126c-0.458,0.449-0.959,0.777-1.609,0.996
			c-0.416,0.14-1.017,0.46-1.194,1.057c0,0-0.001-0.007-0.001-0.007c-0.263-0.029-0.554-0.121-0.776,0.054
			c-0.412,0.325-0.923,0.266-1.38,0.41c-0.251,0.08-0.453-0.036-0.376-0.352c0.038-0.156,0.063-0.302,0.02-0.457l0.003-0.002
			c0.226,0.042,0.306-0.07,0.292-0.279c0.187-0.253,0.372-0.5,0.693-0.609c0.716-0.245,1.371-0.619,2.027-0.989
			c0.698-0.299,1.174-0.87,1.698-1.384c0.117-0.115,0.389-0.144,0.304-0.37c-0.073-0.195-0.289-0.266-0.503-0.262
			c-0.152,0.003-0.303,0.022-0.454,0.035c0.733,0.125,0.501,0.436,0.144,0.746c-0.387,0.336-0.79,0.652-1.186,0.976
			c-3.784,2.056-7.702,1.363-10.4-1.213c-0.454-0.621-0.944-1.216-1.23-1.946c-0.437-1.116-0.444-1.113,0.721-1.075
			c0.03,0.001,0.061-0.037,0.101-0.064c-0.936-0.425-1.873-0.327-2.539,0.278c0.17-0.013,0.316,0.011,0.428-0.04
			c0.548-0.25,0.762-0.073,0.88,0.51c0.201,0.988,0.707,1.833,1.473,2.507c0.28,0.705,0.56,1.41,0.84,2.115
			c-0.045,0.376,0.231,0.829-0.26,1.1c-0.038-0.003-0.053-0.024-0.046-0.061c0.039-0.386-0.011-0.693-0.522-0.539
			c-0.149,0.045-0.273,0.012-0.352-0.1c-0.286-0.407-0.702-0.396-1.126-0.378c0,0-0.004-0.002-0.004-0.002
			c-0.256-0.762-0.634-1.067-1.271-1.028c0.049-0.235-0.039-0.324-0.273-0.259c0,0-0.01-0.01-0.01-0.01
			C160.242,81.203,160.089,81.022,159.324,80.997z M167.298,76.696l0.011-0.006c-0.595-0.314-0.707,0.023-0.699,0.52
			c-0.57,1.151-0.292,2.019,0.849,2.532c0.922,0.414,1.892,0.547,2.898,0.38c0.72-0.12,1.37-0.36,1.624-1.12
			c0.259-0.773-0.032-1.39-0.655-1.873c-0.021-0.031-0.05-0.051-0.087-0.059c0,0-0.025-0.013-0.025-0.013
			c-0.107-0.375,0.301-0.346,0.424-0.54c0.084-0.129,0.168-0.257,0.252-0.386c0.185,0.049,0.302-0.074,0.406-0.184
			c0.759-0.804,1.067-3.387,0.537-4.447c-0.236-0.21,0.089-0.537-0.182-0.765c-0.505-0.427-0.745,0.022-1.051,0.276
			c-0.276-0.017-0.318,0.223-0.382,0.392c-0.361,0.957-0.639,1.935-0.667,2.967c-0.064,0.225-0.129,0.451-0.193,0.676
			c-0.239,0.537-0.716,0.58-1.211,0.586c0,0-0.007,0.013-0.007,0.013c-0.038-0.066-0.075-0.132-0.113-0.199
			c0.242-0.697,0.537-1.383,0.441-2.149c0.294-0.997,0.12-2.013,0.083-3.017c-0.01-0.273-0.041-0.693-0.491-0.755
			c-0.087-0.484-0.332-0.405-0.619-0.174c-0.267,0.091-0.45,0.289-0.581,0.519c-0.728,1.273-1.061,2.633-0.876,4.102
			c0.009,0.129,0.017,0.259,0.026,0.388c-0.01,0.015-0.03,0.032-0.027,0.044c0.008,0.033,0.025,0.064,0.038,0.095
			c-0.098,0.446,0.185,0.867,0.106,1.297c-0.069,0.376,0.229,0.108,0.297,0.215c0.046,0.313,0.835-0.193,0.543,0.492
			c-0.047,0.009-0.094,0.018-0.141,0.027C167.567,76.321,167.436,76.519,167.298,76.696z M174.642,77.581
			c-0.007,0.018-0.018,0.037-0.017,0.055c0,0.006,0.03,0.012,0.046,0.017c0.006-0.018,0.018-0.037,0.017-0.055
			C174.688,77.592,174.658,77.586,174.642,77.581z"/>
		<path fill="#EBD7B4" d="M177.735,80.625c-0.157-0.77-0.409-1.476-1.122-1.936c-0.322-0.208-0.649-0.108-0.973-0.115
			c-0.514-0.01-0.777-0.361-0.523-0.798c0.207-0.357,0.153-0.785,0.371-1.127c0.143-0.225,0.292-0.449,0.577-0.52
			c-0.126,0.715-0.535,1.319-0.83,2.055c1.07,0.084,2.133,0.155,2.59,1.328c0.01,0.092,0.021,0.183,0.031,0.275
			c0,0.177,0.001,0.353,0.001,0.53C177.817,80.42,177.776,80.523,177.735,80.625z"/>
		<path fill="#EBD7B4" d="M176.109,75.956c0.008-0.722-0.167-1.445,0.196-2.157c0.133-0.26,0.09-0.685-0.02-0.979
			c-0.252-0.676-0.216-1.356-0.187-2.045C176.74,72.5,176.7,74.228,176.109,75.956z"/>
		<path fill="#EBD7B4" d="M176.082,70.721c-0.385,0.003-0.492-0.509-0.502-0.579c-0.119-0.857-1.06-1.288-1.088-2.165
			C175.319,68.719,175.804,69.66,176.082,70.721z"/>
		<path fill="#EBD7B4" d="M172.273,66.997c0.044,0.41,0.003,0.738-0.528,0.796c-0.261,0.029-0.436,0.278-0.637,0.449
			c-0.126,0.107-0.29,0.18-0.291-0.11C171.314,67.769,171.547,67.067,172.273,66.997z"/>
		<path fill="#EBD7B4" d="M169.98,66.669c-0.793-0.405-1.622-0.654-2.525-0.588C168.556,65.678,169.283,65.848,169.98,66.669z"/>
		<path fill="#EBD7B4" d="M174.494,67.978c-0.448-0.02-0.878-0.075-1.09-0.558c-0.085-0.194-0.257-0.213-0.442-0.217
			c-0.212-0.005-0.456,0.051-0.559-0.228C173.309,66.873,173.93,67.367,174.494,67.978z"/>
		<path fill="#EBD7B4" d="M170.821,68.138c-0.468-0.003-0.532-0.38-0.638-0.705c-0.081-0.246-0.132-0.502-0.196-0.754
			C170.4,67.088,170.651,67.59,170.821,68.138z"/>
		<path fill="#EBD7B4" d="M166.823,66.336c-0.01,0.598-0.439,0.598-0.863,0.606C166.19,66.658,166.487,66.469,166.823,66.336z"/>
		<path fill="#EBD7B4" d="M167.42,66.081c-0.051,0.424-0.331,0.307-0.587,0.249C167.001,66.183,167.196,66.099,167.42,66.081z"/>
		<path fill="#F4F4F4" d="M166.882,119.536c0.165,0.107,0.345,0.198,0.431,0.393c-0.198,0.07-0.237,0.531-0.564,0.258
			C166.427,119.919,166.714,119.729,166.882,119.536z"/>
		<path fill="#292A29" d="M165.397,115.343c0.368,0.332,0.261,0.762,0.238,1.174C165.418,116.154,165.567,115.716,165.397,115.343z"
			/>
		<path fill="#292A29" d="M164.585,115.588c0.057-0.031,0.114-0.061,0.171-0.092C164.699,115.526,164.642,115.557,164.585,115.588z"
			/>
		<path fill="#292A29" d="M165.124,115.325c0.028-0.065,0.067-0.095,0.129-0.035C165.21,115.301,165.167,115.313,165.124,115.325z"
			/>
		<path fill="#FBBD04" d="M171.571,121.579c-3.104-0.612-5.363-2.37-5.668-5.802c-0.19-2.14,0.347-4.172,0.956-6.363
			c0.606,0.822,1.357,1.245,2.049,1.744c0.416,0.138,0.825,0.279,0.948,0.78c0.029,0.119,0.155,0.148,0.269,0.161
			c0,0.174,0,0.348,0,0.521c-0.477,0.148-0.955,0.296-1.432,0.444c1.232,0.011,2.373-0.436,3.579-0.459
			c0.025,0.212,0.187,0.391,0.347,0.279c0.395-0.278,0.926-0.143,1.284-0.479c1.021-0.049,2.042-0.096,3.062-0.151
			c0.056-0.003,0.352,0.078,0.106-0.158c0.023-0.018,0.039-0.041,0.049-0.068c-0.135-0.328-0.423-0.181-0.646-0.194
			c-0.605-0.033-1.252,0.087-1.805-0.092c-0.467-0.151-0.593-0.004-0.757,0.315c-0.426,0.028-0.849,0.127-1.279,0.053
			c-0.242-0.004-0.486-0.031-0.724-0.005c-0.252,0.027-0.604-0.164-0.704,0.27c-0.066,0.002-0.132,0.005-0.199,0.007
			c-0.318-0.016-0.517-0.405-0.88-0.282c-0.026-0.334,0.022-0.649,0.381-0.772c0.352-0.12,0.522,0.163,0.683,0.4
			c0.079,0.117,0.169,0.282,0.26,0.076c0.143-0.323,0.396-0.222,0.625-0.246c0.17-0.018,0.383,0.049,0.457-0.18
			c0.245-0.761,0.848-0.662,1.427-0.589c0.159,0.02,0.306,0.091,0.417-0.075c0.079-0.118,0.103-0.255,0.026-0.379
			c-0.134-0.214-0.291,0.229-0.442-0.016c0.072-0.218,0.302-0.399,0.198-0.672c0,0,0.001-0.008,0.001-0.008
			c0.501-0.411,1.045-0.683,1.719-0.533c1.375,0.625,2.582,1.501,3.709,2.492c0.889,0.782,1.72,1.619,2.357,2.628
			c0.812,1.285,1.205,3.326-0.552,5.014c-1.765,1.696-3.905,2.289-6.203,2.561c-0.731,0.087-1.482,0.007-2.223,0.004
			C172.573,121.299,172.07,121.45,171.571,121.579z M173.562,111.278c-0.126,0.058-0.377-0.069-0.411,0.183
			c-0.036,0.275,0.213,0.224,0.373,0.226c0.191,0.002,0.45,0.022,0.442-0.254C173.959,111.22,173.724,111.321,173.562,111.278z
			 M167.527,111.38c-0.082,0.306-0.178,0.615,0.049,1.035C167.725,111.974,167.737,111.673,167.527,111.38z M169.397,111.917
			c-0.392-0.077-0.627-0.187-0.856,0.091C168.813,112.12,169.028,112.146,169.397,111.917z M174.404,111.118
			c-0.037-0.016-0.083-0.052-0.11-0.042c-0.027,0.01-0.035,0.069-0.051,0.106c0.037,0.016,0.083,0.053,0.11,0.042
			C174.38,111.214,174.388,111.156,174.404,111.118z"/>
		<path fill="#FBBD03" d="M163.77,115.604c-2.391,0.865-4.86,1.286-7.4,1.238c-1.944-0.037-3.832-0.366-5.576-1.291
			c-0.084-0.259,0.501-0.118,0.276-0.465c-0.189-0.291-0.381-0.165-0.605-0.039c-0.105,0.059-0.259,0.032-0.391,0.044
			c-1.66-1.092-2.712-2.606-3.028-4.568c-0.29-1.803,0.474-2.875,2.276-3.496c1.473-0.508,3.011-0.758,4.586-0.574
			c0.144,0.132,0.274,0.285,0.436,0.391c0.269,0.177,0.533,0.237,0.647-0.182c0.448,0.092,0.917-0.088,1.358,0.102
			c0.066,0.228,0.497,0.444,0.027,0.687c-0.11,0.057-0.362-0.076-0.281,0.212c0.048,0.169,0.122,0.348,0.336,0.364
			c0.198,0.015,0.398,0.004,0.597,0.005c1.289,0.599,2.456,1.399,3.631,2.187c0.065,0.215-0.191,0.551,0.328,0.59
			c0.363,0.027,0.35-0.11,0.343-0.345c0.005-0.04,0.001-0.079-0.013-0.117c0.257-0.154,0.544-0.125,0.826-0.146
			c0.406-0.029,0.828,0.119,1.217-0.105c0.723-0.295,1.475-0.542,1.954-1.225c0.214-0.373,0.549-0.287,0.877-0.231
			c0.043,0.078,0.087,0.156,0.13,0.234c0.031,0.263,0.186,0.53-0.02,0.788c-0.201-0.028-0.386-0.386-0.608-0.019
			c-0.26,0.429,0.266,0.205,0.307,0.381c0.025,0.107,0.049,0.214,0.074,0.321c-0.317,1.398-0.642,2.789-0.699,4.236
			c-0.022,0.553-0.727,0.495-1.071,0.786c-0.053,0.029-0.106,0.057-0.16,0.086c0,0,0.014-0.011,0.014-0.011
			C164.009,115.443,163.88,115.501,163.77,115.604z"/>
		<path fill="#F3BB0B" d="M167.684,108.059c1.231,1.175,2.838,1.119,4.177,0.442c0.548-0.277,0.571-0.727,0.162-1.265
			c0.811-0.164,1.354,0.331,1.869,0.814c0.283,0.265,0.268,0.67,0.077,1.006c-0.164,0.289-0.355,0.581-0.595,0.807
			c-1.437,1.357-4.778,1.328-6.054-0.501c-0.233-0.334-0.339-0.66-0.306-1.053c0.017-0.208,0.076-0.425,0.246-0.508
			C167.459,107.705,167.506,108.024,167.684,108.059z"/>
		<path fill="#F3BB0B" d="M158.893,106.173c0.282,0.877,1.033,1.187,1.798,1.456c0.922,0.325,1.854,0.323,2.771-0.031
			c0.388-0.15,0.605-0.332,0.127-0.697c-0.21-0.161-0.409-0.423-0.37-0.753c0.576,0.183,1.085,0.492,1.552,0.864
			c0.651,0.518,0.724,0.934,0.347,1.695c-1.711,1.715-5.068,0.976-6.448-0.615c-0.587-0.677-0.615-1.341-0.086-1.854
			C158.681,106.145,158.78,106.143,158.893,106.173z"/>
		<path fill="#F4F4F4" d="M166.323,108.875c-0.043-0.078-0.087-0.156-0.13-0.234c-0.159-0.207-0.41-0.393-0.463-0.625
			c-0.343-1.484-1.558-1.868-2.771-2.27c-0.67-0.734-0.979-1.648-1.278-2.568c0.479,0.104,0.909,0.382,1.414,0.392
			c0.562,0.213,1.153,0.188,1.729,0.145c0.59-0.044,0.912,0.102,1.131,0.717c0.313,0.88,0.713,1.74,1.246,2.523
			c0.025,0.086,0.05,0.173,0.075,0.259c0,0-0.005,0.006-0.005,0.006c-0.306,0.381-0.558,0.787-0.554,1.298
			C166.719,108.796,166.531,108.842,166.323,108.875z"/>
		<path fill="#F3BB0B" d="M170.127,112.099c-0.115-0.013-0.24-0.042-0.269-0.161c-0.123-0.501-0.532-0.642-0.948-0.78
			c0.759,0.002,1.524,0.062,2.276-0.008c1.172-0.108,2.189-0.593,2.973-1.502c0.103,0.273-0.126,0.454-0.198,0.672
			c0.151,0.245,0.308-0.198,0.442,0.016c0.077,0.123,0.053,0.261-0.026,0.379c-0.111,0.166-0.258,0.095-0.417,0.075
			c-0.579-0.073-1.182-0.172-1.427,0.589c-0.074,0.229-0.287,0.163-0.457,0.18c-0.229,0.024-0.482-0.077-0.625,0.246
			c-0.091,0.206-0.181,0.041-0.26-0.076c-0.161-0.238-0.331-0.52-0.683-0.4C170.149,111.449,170.101,111.765,170.127,112.099
			C170.127,112.099,170.127,112.099,170.127,112.099z"/>
		<path fill="#292A29" d="M162.959,105.747c1.213,0.401,2.428,0.785,2.771,2.27c0.054,0.232,0.304,0.418,0.463,0.625
			c-0.327-0.057-0.662-0.143-0.877,0.23c-0.066-0.055-0.132-0.11-0.198-0.165c0.377-0.761,0.304-1.177-0.347-1.695
			c-0.467-0.372-0.977-0.681-1.552-0.864C162.931,106.145,162.975,105.927,162.959,105.747z"/>
		<path fill="#F3BB0B" d="M157.03,108.033c-0.199-0.001-0.399,0.01-0.597-0.005c-0.214-0.016-0.288-0.195-0.336-0.364
			c-0.082-0.288,0.171-0.155,0.281-0.212c0.47-0.242,0.039-0.459-0.027-0.687c0.283,0.066,0.563,0.15,0.849,0.196
			c0.619,0.101,0.758,0.511,0.746,1.071c-0.428-0.156-0.82-0.303-1.217-0.437c-0.051-0.017-0.126,0.034-0.243,0.069
			C156.687,107.801,156.859,107.917,157.03,108.033z"/>
		<path fill="#F3BB0B" d="M175.879,109.107c-0.675-0.151-1.218,0.122-1.719,0.533c0.002-0.022,0.001-0.045,0.008-0.066
			C174.589,108.261,174.671,108.239,175.879,109.107z"/>
		<path fill="#F3BB0B" d="M163.363,110.097c-0.388,0.223-0.811,0.075-1.217,0.105c-0.283,0.021-0.569-0.008-0.826,0.146
			c-0.086-0.003-0.172-0.007-0.259-0.01l0.012,0.009c-0.068-0.308,0.017-0.436,0.366-0.397
			C162.078,110.021,162.721,110.05,163.363,110.097z"/>
		<path fill="#F3BB0B" d="M154.991,106.662c-0.114,0.42-0.378,0.36-0.647,0.182c-0.161-0.106-0.291-0.259-0.436-0.391
			C154.275,106.494,154.684,106.313,154.991,106.662z"/>
		<path fill="#F3BB0B" d="M166.077,110.346c-0.025-0.107-0.049-0.214-0.074-0.321c-0.041-0.176-0.567,0.048-0.307-0.381
			c0.222-0.367,0.407-0.009,0.608,0.019C166.276,109.907,166.214,110.139,166.077,110.346z"/>
		<path fill="#F3BB0B" d="M161.332,110.464c0.006,0.235,0.02,0.372-0.343,0.345c-0.519-0.038-0.263-0.375-0.328-0.59
			c0.137,0.042,0.275,0.084,0.412,0.127c0,0-0.012-0.009-0.012-0.009C161.075,110.543,161.216,110.477,161.332,110.464z"/>
		<path fill="#292A29" d="M163.77,115.604c0.11-0.102,0.239-0.16,0.391-0.161C164.087,115.634,163.924,115.607,163.77,115.604z"/>
		<path fill="#292A29" d="M164.147,115.453c0.053-0.029,0.106-0.057,0.16-0.086C164.253,115.396,164.2,115.425,164.147,115.453z"/>
		<path fill="#F61B05" d="M156.592,88.555c0.119-0.244,0.496-0.206,0.559-0.511c1.225-0.579,2.487-1.032,3.869-0.815
			c1.653,0.259,3.209,0.749,4.291,2.156c0.673,0.875,0.651,0.951-0.338,1.448c-0.405,0.199-0.651,0.547-0.794,0.95
			c-0.363,1.024-0.526,2.105-0.768,3.158c-0.176,0.767-0.191,1.63,0.197,2.436c0.121,0.252,0.491,0.185,0.446,0.467
			c-0.081,0.506,0.395,0.869,0.273,1.444c-0.061,0.289,0.07,0.807,0.25,1.208c0.415,0.926,1.241,1.35,2.037,1.826
			c0.164,0.094,0.446,0.121,0.376,0.384c-0.061,0.23-0.235,0.378-0.503,0.475c-0.935,0.336-1.897,0.21-2.85,0.248
			c-0.582-0.356-1.341-0.188-1.891-0.639c-0.398-0.062-0.339-0.501-0.575-0.697c-0.519-0.996-1.185-1.886-2.017-2.802
			c0.071,0.424-0.233,0.469-0.488,0.568c0.386,0.332,0.913,0.301,1.14,0.758c0.205,0.415,0.437,0.817,0.672,1.216
			c0.091,0.154,0.258,0.306,0.162,0.481c-0.121,0.221-0.384,0.222-0.603,0.207c-0.423-0.028-0.844-0.09-1.265-0.139
			c-0.318-0.099-0.636-0.199-0.954-0.298c-0.867-0.553-1.813-0.978-2.603-1.66c-0.405-0.349-0.597-0.697-0.548-1.266
			c0.07-0.804,0.159-1.602,0.266-2.401c0.057-0.422,0.214-0.331,0.439-0.164c-0.042-1.261-0.473-2.47-0.37-3.724
			c0.067-0.821,0.113-1.659,0.509-2.416c0.182,0.004,0.272,0.103,0.286,0.279c-0.007,0.647-0.015,1.294-0.02,1.94
			c-0.001,0.201-0.018,0.42,0.286,0.411c0.559,0.83,0.898,0.798,1.364-0.136c0.067-0.134,0.092-0.288,0.137-0.433
			c0.588-0.389,0.888-2.187,0.507-3.04c-0.186-0.302-0.267-0.735-0.783-0.619c-0.13,0.002-0.261,0.004-0.391,0.006
			C156.713,88.844,156.601,88.75,156.592,88.555z M159.329,93.056c0,0.269-0.045,0.547,0.009,0.805
			c0.119,0.569,0.405,1.047,1.013,1.195c0.554,0.135,1.028-0.075,1.345-0.533c0.847-1.225,1.175-2.58,0.875-4.053
			c-0.214-1.053-1.146-1.418-1.956-0.735C159.599,90.594,159.443,91.829,159.329,93.056z"/>
		<path fill="#F9F9F9" d="M170.667,102.113c-0.086-0.026-0.133,0.012-0.154,0.094c-1.208,0.207-2.412,0.34-3.595-0.132
			c-1.586-0.757-2.544-1.895-2.284-3.771c0.012-0.086,0.024-0.152-0.063-0.226c-0.796-0.68-1.153-2.383-0.812-3.354
			c0.287-0.815,0.666-1.578,1.191-2.319c-0.358-0.061-0.459,0.377-0.728,0.161c0.241-0.565,0.541-1.084,0.928-1.55
			c1.474-0.796,3.039-1.095,4.701-0.854c0.918,0.229,1.805,0.526,2.602,1.199c-1.745,0.66-2.263,1.996-2.007,3.666
			c0.244,1.596,1.135,2.658,2.836,2.907c-0.128,0.578-0.582,0.903-0.914,1.312c-1.295,0.966-2.678,1.591-4.368,1.09
			c0.612,0.303,1.185,0.609,1.883,0.412c0.777-0.219,1.55-0.437,2.262-0.83c0.028,0.03,0.059,0.056,0.094,0.077
			C172.031,100.936,171.571,101.689,170.667,102.113z"/>
		<path fill="#F4F4F4" d="M156.34,88.192c-1.503,1.837-1.936,3.995-1.696,6.274c0.155,1.468-0.275,2.841-0.37,4.263
			c-0.018,0.268-0.179,0.264-0.369,0.241c-0.763-0.356-1.439-0.821-1.93-1.524c-0.494-0.708-0.513-1.407-0.064-2.077
			c0.782,0.537,0.508,1.545,1.016,2.409c0-0.412,0-0.643,0-0.898c0.197-0.138,0.278,0.273,0.504,0.121
			c0-0.041,0.024-0.116-0.004-0.153c-0.379-0.501-0.745-1.009-1.061-1.555c-1.088-1.878-0.835-3.671,0.387-5.357
			c0.798-1.1,1.915-1.82,3.203-2.244c0.197-0.065,0.513-0.356,0.7,0.07C156.551,87.907,156.445,88.05,156.34,88.192z"/>
		<path fill="#F4F4F4" d="M175.258,96.437c-1.24,1.951-3.407,1.118-4.099-0.356c-0.467-0.995-0.508-1.994-0.148-3.013
			c0.362-1.024,1.128-1.456,2.347-1.363c-0.392,0.555-1.087,0.861-1.241,1.62c-0.411,2.025,0.929,3.439,2.943,3.082
			C175.122,96.397,175.191,96.426,175.258,96.437z"/>
		<path fill="#EBD7B4" d="M170.624,84.204c0.043,0.155,0.017,0.301-0.02,0.457c-0.077,0.316,0.125,0.431,0.376,0.352
			c0.456-0.145,0.967-0.086,1.38-0.41c0.221-0.174,0.512-0.083,0.776-0.054c-0.341,0.157-0.681,0.315-1.022,0.472
			c-1.027,0.251-1.995,0.563-2.891,1.208c-1.43,1.029-3.109,0.789-4.336-0.48c-0.449-0.465-0.821-1.005-1.228-1.51
			c0.491-0.271,0.215-0.723,0.26-1.1c0.235,0.364,0.47,0.729,0.705,1.093c0.334,0.603,0.802,1.07,1.425,1.368
			c1.565,0.746,2.801,0.096,3.943-0.941C170.201,84.507,170.413,84.356,170.624,84.204z"/>
		<path fill="#F4F4F4" d="M156.473,87.375c-1.746,0.225-3.08,1.129-4.146,2.492c-0.085,0.109-0.119,0.557-0.442,0.189
			c0.035-2.262,2.453-4.212,4.623-3.715c0.351,0.08,0.899,0.119,0.883,0.529C157.377,87.261,156.868,87.35,156.473,87.375z"/>
		<path fill="#251A14" d="M165.15,91.016c-0.387,0.466-0.687,0.985-0.928,1.55c0.269,0.216,0.37-0.222,0.728-0.161
			c-0.525,0.742-0.904,1.504-1.191,2.319c-0.342,0.971,0.015,2.673,0.812,3.354c0.087,0.074,0.075,0.14,0.063,0.226
			c-0.26,1.876,0.698,3.013,2.284,3.771c-0.151,0.022-0.289,0.06-0.303,0.249c-0.797-0.476-1.622-0.901-2.037-1.826
			c-0.18-0.401-0.311-0.919-0.25-1.208c0.122-0.575-0.354-0.937-0.273-1.444c0.045-0.282-0.325-0.215-0.446-0.467
			c-0.388-0.806-0.373-1.669-0.197-2.436c0.241-1.053,0.405-2.134,0.768-3.158c0.143-0.403,0.389-0.751,0.794-0.95
			C165.032,90.895,165.091,90.956,165.15,91.016z"/>
		<path fill="#F4F4F4" d="M173.371,91.408c-0.336,0.027-0.585-0.128-0.847-0.328c-0.79-0.604-1.65-1.069-2.668-1.156
			c-0.43-0.149-0.877-0.152-1.324-0.166c-0.157-0.005-0.378-0.019-0.297-0.238c0.166-0.449,0.507-0.79,0.859-1.097
			c0.309-0.27,0.544,0.068,0.771,0.191c1.125,0.61,2.145,1.375,3.101,2.223C173.136,90.987,173.408,91.098,173.371,91.408z"/>
		<path fill="#EBD7B4" d="M161.612,83.161c0.423-0.018,0.84-0.03,1.126,0.378c0.079,0.112,0.202,0.145,0.352,0.1
			c0.511-0.153,0.561,0.153,0.522,0.539C162.772,84.177,162.218,83.617,161.612,83.161z"/>
		<path fill="#EBD7B4" d="M160.337,82.131c0.638-0.039,1.015,0.266,1.271,1.028C161.072,82.955,160.62,82.648,160.337,82.131z"/>
		<path fill="#EBD7B4" d="M160.064,81.871c0.234-0.064,0.323,0.025,0.274,0.259c-0.065-0.035-0.13-0.07-0.196-0.105
			C160.116,81.975,160.09,81.923,160.064,81.871z"/>
		<path fill="#251A14" d="M161.747,102.793c0.55,0.451,1.309,0.282,1.891,0.639c-0.18,0.051-0.399-0.051-0.542,0.14
			c-0.505-0.01-0.935-0.288-1.414-0.392C161.703,103.051,161.725,102.922,161.747,102.793z"/>
		<path fill="#251A14" d="M167.276,107.217c-0.025-0.086-0.05-0.173-0.075-0.259c0.145,0.038,0.391-0.078,0.399,0.165
			C167.604,107.26,167.397,107.212,167.276,107.217z"/>
		<path fill="#251A14" d="M171.796,106.732c0,0,0.048,0.01,0.048,0.01c-0.011,0.075-0.023,0.149-0.034,0.224
			C171.806,106.888,171.801,106.81,171.796,106.732z"/>
		<path fill="#F9F9F9" d="M172.145,99.919c0.025-0.033,0.051-0.066,0.076-0.099c0.006,0.059,0.012,0.117,0.018,0.176
			C172.205,99.974,172.174,99.949,172.145,99.919z"/>
		<path fill="#EBD7B4" d="M173.135,84.555c0.177-0.597,0.779-0.917,1.194-1.057c0.65-0.218,1.151-0.547,1.609-0.996
			c0.199-0.195,0.404-0.131,0.619-0.126c-0.666,0.754-1.529,1.242-2.377,1.75C173.832,84.27,173.484,84.412,173.135,84.555z"/>
		<path fill="#EBD7B4" d="M176.734,82.213c-0.043-0.77,0.469-1.187,1.009-1.587C177.607,81.282,177.215,81.776,176.734,82.213z"/>
		<path fill="#292A29" d="M177.857,80.318c0-0.177-0.001-0.354-0.001-0.53C178.019,79.964,178.017,80.141,177.857,80.318z"/>
		<path fill="#251A14" d="M158.772,102.385c0.422,0.048,0.842,0.111,1.265,0.139c0.219,0.014,0.481,0.014,0.603-0.207
			c0.096-0.175-0.071-0.326-0.162-0.481c-0.234-0.399-0.466-0.801-0.672-1.216c-0.226-0.457-0.754-0.426-1.14-0.758
			c0.255-0.098,0.558-0.144,0.488-0.568c0.832,0.916,1.499,1.806,2.017,2.802c-0.582,0.939-1.454,0.582-2.261,0.494
			C158.858,102.584,158.818,102.456,158.772,102.385z"/>
		<path fill="#CA0608" d="M155.798,90.737c-0.014-0.177-0.104-0.275-0.286-0.279c0.239-0.703,0.514-1.385,1.08-1.902
			c0.01,0.195,0.121,0.289,0.306,0.31c-0.13,0.386-0.693,0.548-0.556,1.072l0.018-0.005
			C155.878,89.994,156.138,90.575,155.798,90.737z"/>
		<path fill="#EBD7B4" d="M159.324,80.997c0.765,0.025,0.918,0.205,0.73,0.864c-0.202-0.199-0.404-0.398-0.605-0.597
			C159.407,81.176,159.366,81.086,159.324,80.997z"/>
		<path fill="#060605" d="M171.327,77.129c0.623,0.483,0.914,1.1,0.655,1.873c-0.255,0.76-0.905,1.001-1.624,1.12
			c-1.006,0.167-1.976,0.034-2.898-0.38c-1.141-0.513-1.419-1.381-0.849-2.532c0.233-0.173,0.466-0.347,0.699-0.52
			c0,0-0.011,0.006-0.011,0.006c0.176-0.055,0.351-0.11,0.527-0.165c0.047-0.009,0.094-0.018,0.141-0.027
			c1.129-0.088,2.227,0.007,3.248,0.553c0,0,0.025,0.013,0.025,0.013C171.25,77.117,171.279,77.137,171.327,77.129z"/>
		<path fill="#060605" d="M170.624,84.204c-0.211,0.152-0.422,0.303-0.633,0.455c-0.138-0.044-0.277-0.088-0.415-0.132
			c-0.574-0.393-1.236-0.569-1.893-0.751c-0.215-0.06-0.494-0.135-0.57,0.155c-0.158,0.604-0.323,0.256-0.548,0.05
			c-0.34-0.311-0.625-0.71-1.099-0.839c-0.333-0.091-0.748-0.37-1.001-0.116c-0.278,0.278,0.184,0.572,0.255,0.881
			c0.005,0.022,0.005,0.044,0.007,0.067c-0.035,0.086-0.07,0.173-0.105,0.259c-0.235-0.364-0.47-0.729-0.705-1.093
			c-0.28-0.705-0.56-1.41-0.84-2.115c0.055-0.057,0.11-0.114,0.165-0.17c2.698,2.576,6.616,3.268,10.4,1.213
			c-0.001,0.086-0.002,0.172-0.002,0.258c-0.656,0.37-1.311,0.745-2.027,0.989c-0.321,0.109-0.506,0.356-0.693,0.609
			c-0.097,0.093-0.195,0.186-0.292,0.279L170.624,84.204z"/>
		<path fill="#F4F4F4" d="M168.441,69.351c0.288-0.231,0.532-0.31,0.619,0.174c0.092,0.456,0.2,0.906,0.276,1.367
			c0.135,0.812-0.092,1.6-0.01,2.398c-0.166,0.784-0.319,1.572-0.717,2.283c-0.079,0.02-0.191-0.018-0.203,0.118l-0.003,0.004
			c-0.257-0.149-0.048-0.32-0.003-0.461c0.11-0.347,0.206-0.693,0.145-1.057c-0.058-0.348-0.063-0.785-0.458-0.905
			c-0.404-0.123-0.543,0.306-0.759,0.546c-0.044,0.049-0.098,0.09-0.147,0.134c-0.041-1.255,0.239-2.446,0.692-3.608
			C168.014,69.979,168.411,69.772,168.441,69.351z"/>
		<path fill="#F4F4F4" d="M171.89,76.132c-0.084,0.129-0.168,0.257-0.252,0.386c-0.022-0.251-0.168-0.184-0.312-0.123
			c-0.069-0.583,0.385-1.058,0.314-1.657c-0.081-0.684-0.197-0.806-0.84-0.635c0.089-1.076,0.47-2.077,0.801-3.091
			c0.306-0.254,0.546-0.703,1.051-0.276c0.27,0.228-0.054,0.555,0.182,0.765c-0.172,0.059-0.159,0.206-0.132,0.331
			C173.041,73.381,172.772,74.814,171.89,76.132z"/>
		<path fill="#060605" d="M170.8,74.103c0.643-0.171,0.759-0.049,0.84,0.635c0.071,0.6-0.383,1.074-0.314,1.657
			c-0.131-0.006-0.275,0.022-0.391-0.023c-1.139-0.447-2.304-0.605-3.512-0.36c-0.068-0.107-0.366,0.16-0.297-0.215
			c0.079-0.43-0.204-0.852-0.106-1.297c-0.004-0.046-0.008-0.093-0.011-0.139c-0.009-0.129-0.017-0.259-0.026-0.388
			c0.065-0.007,0.131-0.014,0.196-0.021c0.049-0.044,0.103-0.085,0.147-0.134c0.216-0.24,0.355-0.669,0.759-0.546
			c0.395,0.12,0.4,0.557,0.458,0.905c0.061,0.364-0.035,0.71-0.145,1.057c-0.045,0.141-0.254,0.312,0.004,0.46
			c-0.014-0.039-0.029-0.078-0.043-0.117c-0.021,0.014-0.042,0.028-0.064,0.042c0.036,0.024,0.073,0.048,0.109,0.072
			c0.012-0.135,0.125-0.097,0.203-0.118c0.1,0.005,0.201,0.011,0.301,0.016c0.077,0.019,0.153,0.037,0.23,0.056
			c0,0,0.007-0.013,0.007-0.013c1.244,0.287,1.244,0.287,1.211-0.585c0.064-0.225,0.129-0.451,0.193-0.676
			C170.634,74.281,170.717,74.192,170.8,74.103z"/>
		<path fill="#EBD7B4" d="M167.424,76.011c1.208-0.245,2.373-0.087,3.512,0.36c0.116,0.045,0.26,0.017,0.391,0.023
			c0.144-0.061,0.291-0.128,0.312,0.123c-0.123,0.194-0.531,0.165-0.424,0.54c-1.021-0.546-2.119-0.642-3.248-0.553
			C168.259,75.818,167.469,76.325,167.424,76.011z"/>
		<path fill="#292A29" d="M163.241,80.853c-0.055,0.057-0.11,0.114-0.165,0.17c-0.766-0.674-1.273-1.519-1.473-2.507
			c-0.119-0.583-0.333-0.76-0.88-0.51c-0.112,0.051-0.259,0.027-0.428,0.04c0.667-0.606,1.604-0.704,2.539-0.278
			c-0.041,0.027-0.071,0.065-0.101,0.064c-1.165-0.038-1.158-0.041-0.721,1.075C162.297,79.637,162.787,80.232,163.241,80.853z"/>
		<path fill="#292A29" d="M167.18,73.951c-0.065,0.007-0.131,0.014-0.196,0.021c-0.186-1.469,0.148-2.83,0.876-4.102
			c0.132-0.23,0.315-0.428,0.581-0.519c-0.029,0.421-0.427,0.628-0.568,0.992C167.42,71.506,167.139,72.696,167.18,73.951z"/>
		<path fill="#251A14" d="M171.89,76.132c0.882-1.318,1.15-2.751,0.811-4.3c-0.027-0.124-0.04-0.272,0.132-0.331
			c0.53,1.059,0.221,3.642-0.537,4.447C172.192,76.058,172.075,76.18,171.89,76.132z"/>
		<path fill="#251A14" d="M169.326,73.29c-0.082-0.797,0.145-1.586,0.01-2.398c-0.077-0.461-0.184-0.912-0.276-1.367
			c0.45,0.062,0.481,0.482,0.491,0.755c0.037,1.005,0.211,2.02-0.083,3.017C169.421,73.295,169.374,73.292,169.326,73.29z"/>
		<path fill="#292A29" d="M173.639,82.324c0.001-0.086,0.002-0.172,0.002-0.258c0.396-0.325,0.8-0.641,1.186-0.976
			c0.358-0.311,0.589-0.621-0.144-0.746c0.151-0.012,0.303-0.032,0.454-0.035c0.213-0.004,0.43,0.067,0.503,0.262
			c0.085,0.226-0.187,0.255-0.304,0.37C174.813,81.454,174.337,82.025,173.639,82.324z"/>
		<path fill="#292A29" d="M170.8,74.103c-0.083,0.089-0.166,0.179-0.249,0.268c0.029-1.033,0.306-2.011,0.667-2.967
			c0.064-0.169,0.106-0.408,0.382-0.392C171.27,72.026,170.889,73.026,170.8,74.103z"/>
		<path fill="#292A29" d="M169.326,73.29c0.047,0.003,0.095,0.005,0.142,0.008c0.096,0.766-0.2,1.452-0.441,2.149
			c-0.039,0.048-0.078,0.095-0.117,0.143c-0.1-0.005-0.201-0.011-0.301-0.016C169.007,74.862,169.161,74.074,169.326,73.29z"/>
		<path fill="#EBD7B4" d="M170.358,75.046c0.033,0.872,0.033,0.872-1.211,0.585C169.642,75.626,170.12,75.583,170.358,75.046z"/>
		<path fill="#EBD7B4" d="M167.309,76.69c-0.233,0.173-0.466,0.347-0.699,0.52C166.603,76.713,166.714,76.376,167.309,76.69z"/>
		<path fill="#EBD7B4" d="M167.825,76.531c-0.176,0.055-0.351,0.11-0.527,0.165C167.436,76.519,167.567,76.321,167.825,76.531z"/>
		<path fill="#EBD7B4" d="M170.627,84.202c0.097-0.093,0.195-0.186,0.292-0.279C170.932,84.132,170.853,84.244,170.627,84.202z"/>
		<path fill="#EBD7B4" d="M174.642,77.581c0.016,0.006,0.046,0.011,0.046,0.017c0.001,0.018-0.01,0.037-0.017,0.055
			c-0.016-0.006-0.046-0.011-0.046-0.017C174.624,77.618,174.635,77.599,174.642,77.581z"/>
		<path fill="#EBD7B4" d="M168.91,75.589c0.039-0.048,0.078-0.095,0.117-0.143c0.038,0.066,0.075,0.132,0.113,0.199
			C169.064,75.626,168.987,75.608,168.91,75.589z"/>
		<path fill="#292A29" d="M167.01,74.36c0.004,0.046,0.008,0.093,0.011,0.139c-0.013-0.032-0.031-0.062-0.038-0.095
			C166.98,74.392,167,74.375,167.01,74.36z"/>
		<path fill="#EBD7B4" d="M171.327,77.129c-0.048,0.008-0.077-0.012-0.087-0.059C171.276,77.078,171.305,77.098,171.327,77.129z"/>
		<path fill="#251A14" d="M172.634,112.11c0.43,0.074,0.853-0.025,1.279-0.053c0.138,0.011,0.276,0.021,0.414,0.032
			c0.915,0.002,1.83,0.005,2.745,0.007c0.247,0.236-0.049,0.155-0.106,0.159c-1.02,0.056-2.041,0.103-3.062,0.151
			c-0.553-0.013-1.099,0.043-1.631,0.2c-1.207,0.023-2.347,0.47-3.579,0.459c0.477-0.148,0.955-0.296,1.432-0.444
			c0.308-0.025,0.615-0.057,0.88-0.239c0.066-0.002,0.132-0.005,0.199-0.007C171.693,112.344,172.182,112.328,172.634,112.11z"/>
		<path fill="#F3BB0B" d="M174.328,112.088c-0.138-0.011-0.276-0.021-0.414-0.032c0.164-0.319,0.29-0.466,0.757-0.315
			c0.554,0.178,1.2,0.059,1.805,0.092c0.223,0.012,0.512-0.135,0.646,0.193C176.191,112.027,175.255,111.878,174.328,112.088z"/>
		<path fill="#F3BB0B" d="M172.274,112.605c0.533-0.157,1.078-0.213,1.631-0.2c-0.359,0.335-0.89,0.201-1.284,0.479
			C172.462,112.997,172.299,112.818,172.274,112.605z"/>
		<path fill="#292A29" d="M174.328,112.088c0.927-0.211,1.863-0.061,2.794-0.061c-0.009,0.028-0.025,0.051-0.049,0.068
			C176.158,112.093,175.243,112.091,174.328,112.088z"/>
		<path fill="#F3BB0B" d="M173.562,111.278c0.163,0.042,0.397-0.059,0.404,0.155c0.009,0.276-0.25,0.256-0.442,0.254
			c-0.161-0.002-0.409,0.049-0.373-0.226C173.184,111.21,173.436,111.336,173.562,111.278z"/>
		<path fill="#F3BB0B" d="M171.007,112.381c-0.266,0.182-0.572,0.214-0.88,0.239c0-0.174,0-0.348,0-0.521c0,0,0,0,0,0
			C170.49,111.976,170.689,112.365,171.007,112.381z"/>
		<path fill="#F3BB0B" d="M167.527,111.38c0.21,0.293,0.197,0.593,0.049,1.035C167.349,111.995,167.445,111.686,167.527,111.38z"/>
		<path fill="#F3BB0B" d="M172.634,112.11c-0.452,0.219-0.942,0.234-1.429,0.265c0.1-0.434,0.452-0.242,0.704-0.27
			C172.149,112.079,172.393,112.106,172.634,112.11z"/>
		<path fill="#F3BB0B" d="M169.397,111.917c-0.369,0.229-0.585,0.203-0.856,0.091C168.77,111.73,169.006,111.84,169.397,111.917z"/>
		<path fill="#F3BB0B" d="M174.405,111.118c-0.016,0.037-0.024,0.095-0.051,0.106c-0.027,0.011-0.072-0.026-0.11-0.042
			c0.016-0.037,0.024-0.096,0.051-0.106C174.321,111.066,174.367,111.102,174.405,111.118z"/>
		<path fill="#251A14" d="M161.332,110.464c-0.116,0.012-0.258,0.079-0.272-0.127c0.086,0.003,0.172,0.007,0.259,0.01
			C161.333,110.385,161.337,110.424,161.332,110.464z"/>
		<path fill="#F4F4F4" d="M157.289,88.86c0.516-0.116,0.597,0.318,0.783,0.619c-0.169,1.013-0.338,2.026-0.507,3.04
			c-0.045,0.145-0.07,0.299-0.137,0.433c-0.465,0.935-0.804,0.967-1.364,0.136c0.067-0.596-0.09-1.192,0.019-1.792
			c0.083-0.457,0.336-0.879,0.277-1.364c0,0-0.018,0.005-0.018,0.005C156.763,89.67,156.967,89.213,157.289,88.86z"/>
		<path fill="#251A14" d="M159.329,93.056c0.114-1.227,0.27-2.462,1.286-3.32c0.81-0.684,1.742-0.318,1.956,0.735
			c0.299,1.473-0.028,2.827-0.875,4.053c-0.316,0.458-0.791,0.668-1.345,0.533c-0.608-0.148-0.894-0.626-1.013-1.195
			C159.284,93.603,159.329,93.325,159.329,93.056z M162.307,91.381c-0.031-0.381,0.02-0.795-0.172-1.173
			c-0.149-0.293-0.349-0.546-0.706-0.55c-0.344-0.003-0.644,0.107-0.794,0.468c-0.051,0.122-0.153,0.222-0.22,0.338
			c-0.594,1.028-0.831,2.137-0.699,3.312c0.054,0.482,0.232,0.967,0.77,1.081c0.495,0.104,0.771-0.293,1.009-0.654
			C162.054,93.356,162.315,92.418,162.307,91.381z"/>
		<path fill="#251A14" d="M157.565,92.519c0.169-1.013,0.338-2.026,0.507-3.04C158.453,90.332,158.152,92.13,157.565,92.519z"/>
		<path fill="#251A14" d="M156.36,89.932c0.059,0.485-0.194,0.907-0.277,1.364c-0.109,0.6,0.049,1.196-0.019,1.792
			c-0.305,0.009-0.288-0.21-0.286-0.411c0.004-0.647,0.013-1.294,0.02-1.94C156.138,90.575,155.878,89.994,156.36,89.932z"/>
		<path fill="#251A14" d="M157.289,88.86c-0.323,0.353-0.526,0.811-0.947,1.078c-0.137-0.525,0.426-0.686,0.556-1.072
			C157.029,88.863,157.159,88.861,157.289,88.86z"/>
		<path fill="#251A14" d="M164.621,84.232c0.035-0.086,0.07-0.173,0.105-0.259c0.567,0.562,0.959,1.294,1.832,1.543
			c0.957,0.272,2.507-0.174,3.017-0.988c0.138,0.044,0.277,0.088,0.415,0.132c-1.142,1.037-2.379,1.687-3.944,0.941
			C165.423,85.303,164.955,84.835,164.621,84.232z"/>
		<path fill="#CA0608" d="M169.575,84.527c-0.51,0.814-2.061,1.261-3.017,0.988c-0.873-0.248-1.265-0.98-1.832-1.543
			c-0.002-0.022-0.002-0.045-0.007-0.067c-0.071-0.308-0.533-0.603-0.255-0.881c0.253-0.253,0.668,0.025,1.001,0.116
			c0.474,0.129,0.759,0.528,1.099,0.839c0.226,0.206,0.391,0.553,0.548-0.05c0.076-0.29,0.355-0.215,0.57-0.155
			C168.34,83.959,169.001,84.135,169.575,84.527z"/>
		<path fill="#F4F4F4" d="M168.406,75.69c-0.036-0.024-0.073-0.048-0.109-0.072c0.021-0.014,0.042-0.028,0.064-0.042
			c0.014,0.039,0.029,0.078,0.043,0.117C168.403,75.694,168.406,75.69,168.406,75.69z"/>
		<path fill="#F4F4F4" d="M162.307,91.381c0.008,1.036-0.253,1.975-0.813,2.823c-0.238,0.361-0.515,0.758-1.009,0.654
			c-0.538-0.113-0.716-0.598-0.77-1.081c-0.132-1.175,0.105-2.285,0.699-3.312c0.067-0.116,0.169-0.216,0.22-0.338
			c0.15-0.361,0.451-0.471,0.794-0.468c0.357,0.004,0.557,0.257,0.706,0.55C162.327,90.586,162.276,91,162.307,91.381z"/>
	</g>
</g>
<path fill="none" stroke="#13110C" stroke-width="6" d="M185.608,93.131c0-9.027-9.754-15.581-18.487-15.581
	c-8.732,0-18.476,6.668-18.476,15.581"/>
</svg>
